<svg width="81" height="57" viewBox="0 0 81 57" fill="none" xmlns="http://www.w3.org/2000/svg">
<path d="M41.5694 19.8132C41.5694 20.0174 41.5439 20.2266 41.4928 20.4409C41.452 20.6451 41.4061 20.839 41.355 21.0227C41.3448 21.0533 41.3397 21.0839 41.3397 21.1146C41.3397 21.1452 41.3346 21.1707 41.3244 21.1911C41.3142 21.2217 41.2938 21.2524 41.2632 21.283C41.2428 21.3136 41.2274 21.3442 41.2172 21.3748C41.1866 21.4973 41.1713 21.6045 41.1713 21.6963C41.1815 21.7882 41.1662 21.8801 41.1254 21.9719C41.0743 22.0536 41.0386 22.1046 41.0182 22.125C40.9978 22.1454 40.9774 22.1812 40.957 22.2322C40.9059 22.3139 40.8651 22.3853 40.8345 22.4465C40.8039 22.4976 40.7682 22.5333 40.7273 22.5537C40.7273 22.5741 40.7222 22.5996 40.712 22.6303C40.7018 22.6507 40.7018 22.6813 40.712 22.7221C40.6304 22.7834 40.5742 22.8599 40.5436 22.9518C40.5232 23.0334 40.4773 23.1151 40.4058 23.1967C40.3446 23.2682 40.3037 23.3192 40.2833 23.3498C40.2731 23.3702 40.2578 23.3907 40.2374 23.4111C40.2068 23.4417 40.1762 23.4672 40.1455 23.4876C40.1149 23.4978 40.0843 23.5182 40.0537 23.5489C39.972 23.6509 39.9006 23.7275 39.8393 23.7785C39.7781 23.8295 39.7373 23.8908 39.7169 23.9622C39.6454 23.9826 39.5944 24.0082 39.5638 24.0388C39.4821 24.1 39.4362 24.1459 39.426 24.1766C39.4158 24.197 39.4005 24.2123 39.38 24.2225C39.3188 24.2735 39.2678 24.3041 39.2269 24.3144C39.1861 24.3246 39.1555 24.3399 39.1351 24.3603C39.0738 24.4113 38.9922 24.4624 38.8901 24.5134C38.7881 24.5542 38.7064 24.6052 38.6452 24.6665C38.5329 24.7175 38.4563 24.7634 38.4155 24.8043C38.3849 24.8349 38.3492 24.8604 38.3083 24.8808C38.2573 24.9114 38.2012 24.9319 38.1399 24.9421C38.0889 24.9523 38.0532 24.988 38.0328 25.0492C37.9001 25.0901 37.7929 25.1258 37.7113 25.1564C37.6398 25.1972 37.548 25.2227 37.4357 25.233C37.3846 25.284 37.2877 25.3248 37.1448 25.3554C37.0121 25.3963 36.8896 25.4218 36.7773 25.432C36.7263 25.432 36.6753 25.4269 36.6242 25.4167C36.5732 25.4167 36.5222 25.4167 36.4711 25.4167C36.4099 25.4269 36.3487 25.4422 36.2874 25.4626C36.2364 25.4932 36.1854 25.5085 36.1343 25.5085C36.0935 25.5187 36.0527 25.5136 36.0118 25.4932C35.9812 25.4728 35.9404 25.4524 35.8894 25.432C35.7771 25.4422 35.6852 25.4524 35.6138 25.4626C35.5423 25.483 35.476 25.4932 35.4148 25.4932C35.3535 25.5034 35.2872 25.5034 35.2157 25.4932C35.1545 25.483 35.0984 25.4728 35.0473 25.4626C35.0269 25.483 34.9759 25.483 34.8942 25.4626C34.8228 25.4524 34.7768 25.4371 34.7564 25.4167C34.685 25.4677 34.6135 25.4728 34.5421 25.432C34.4706 25.3912 34.3992 25.3605 34.3278 25.3401C34.2257 25.3095 34.1236 25.2942 34.0216 25.2942C33.9297 25.3044 33.8429 25.2738 33.7613 25.2023C33.5265 25.2023 33.3581 25.1411 33.2561 25.0186C33.1132 24.988 33.0213 24.9625 32.9805 24.9421C32.9396 24.9217 32.8937 24.8961 32.8427 24.8655C32.8019 24.8247 32.7661 24.7992 32.7355 24.789C32.7049 24.7686 32.6743 24.743 32.6437 24.7124C32.5926 24.6716 32.5518 24.6461 32.5212 24.6359C32.5008 24.6257 32.4803 24.6103 32.4599 24.5899C32.4293 24.5593 32.3987 24.5236 32.3681 24.4828C32.3477 24.4419 32.3221 24.4113 32.2915 24.3909C32.2405 24.3909 32.1946 24.3807 32.1537 24.3603C32.1231 24.3297 32.0823 24.2888 32.0313 24.2378C31.9802 24.197 31.919 24.151 31.8475 24.1C31.7863 24.0388 31.7455 23.9775 31.7251 23.9163C31.6638 23.8959 31.6026 23.8755 31.5413 23.8551C31.4801 23.8346 31.4342 23.804 31.4035 23.7632C31.3219 23.6815 31.2555 23.6152 31.2045 23.5642C31.1535 23.5131 31.1127 23.4621 31.082 23.4111C31.031 23.2988 30.9902 23.2273 30.9596 23.1967C30.9289 23.1559 30.8932 23.1202 30.8524 23.0896C30.7707 22.9773 30.7044 22.8854 30.6534 22.814C30.6023 22.7425 30.5615 22.6813 30.5309 22.6303C30.49 22.5996 30.4594 22.5639 30.439 22.5231C30.4186 22.4823 30.3982 22.4414 30.3778 22.4006C30.3676 22.3496 30.3472 22.3036 30.3165 22.2628C30.2961 22.222 30.2655 22.1914 30.2247 22.171C30.2349 22.0791 30.2145 22.0077 30.1634 21.9566C30.1226 21.8954 30.0869 21.829 30.0563 21.7576C30.0359 21.7066 30.0205 21.6504 30.0103 21.5892C30.0103 21.5279 30.0052 21.4616 29.995 21.3901C29.9746 21.3595 29.9542 21.3289 29.9338 21.2983C29.9134 21.2575 29.9032 21.2166 29.9032 21.1758C29.9134 21.1044 29.9083 21.0482 29.8879 21.0074C29.8777 20.9666 29.8674 20.9308 29.8572 20.9002C29.847 20.8492 29.8419 20.8033 29.8419 20.7624C29.8521 20.7216 29.8521 20.6808 29.8419 20.64L29.796 20.4103C29.796 20.3797 29.796 20.344 29.796 20.3031C29.8062 20.2521 29.7909 20.2164 29.7501 20.196C29.7705 20.0939 29.7807 20.0225 29.7807 19.9816C29.7603 19.8898 29.7501 19.8387 29.7501 19.8285C29.7603 19.8081 29.7654 19.7928 29.7654 19.7826C29.7552 19.7009 29.7552 19.6295 29.7654 19.5683C29.7756 19.507 29.7705 19.4305 29.7501 19.3386C29.7297 19.2978 29.7246 19.257 29.7348 19.2161C29.7552 19.1753 29.7603 19.1192 29.7501 19.0477C29.7297 18.9354 29.7143 18.8487 29.7041 18.7875C29.7041 18.7262 29.7092 18.6752 29.7194 18.6344C29.7194 18.5935 29.7246 18.5578 29.7348 18.5272C29.7552 18.4966 29.7654 18.4608 29.7654 18.42C29.7552 18.3179 29.7552 18.2516 29.7654 18.221C29.7756 18.1802 29.7807 18.1495 29.7807 18.1291C29.7705 18.0985 29.7603 18.0679 29.7501 18.0373C29.7399 18.0066 29.7348 17.9811 29.7348 17.9607C29.7348 17.9097 29.7399 17.8586 29.7501 17.8076C29.7603 17.7464 29.7705 17.6902 29.7807 17.6392C29.8011 17.578 29.8113 17.5167 29.8113 17.4555C29.8113 17.3942 29.8215 17.3432 29.8419 17.3024C29.9236 17.1799 29.9797 17.0778 30.0103 16.9962C30.0512 16.9043 30.0869 16.8227 30.1175 16.7512C30.1583 16.6492 30.189 16.5471 30.2094 16.445C30.24 16.343 30.2961 16.2613 30.3778 16.2001C30.388 16.1184 30.4033 16.0521 30.4237 16.001C30.4543 15.95 30.4798 15.8939 30.5003 15.8326C30.5513 15.7306 30.587 15.6642 30.6074 15.6336C30.638 15.603 30.6636 15.5621 30.684 15.5111C30.735 15.4295 30.7656 15.3682 30.7758 15.3274C30.786 15.2764 30.7962 15.2406 30.8065 15.2202C30.8881 15.1386 30.9442 15.0671 30.9749 15.0059C31.0157 14.9344 31.0463 14.8732 31.0667 14.8222C31.1688 14.7813 31.2504 14.6997 31.3117 14.5772C31.3729 14.567 31.4138 14.5415 31.4342 14.5007C31.4546 14.4496 31.5056 14.4292 31.5873 14.4394C31.6077 14.3884 31.6536 14.3476 31.7251 14.3169C31.7455 14.2761 31.7659 14.2506 31.7863 14.2404C31.8169 14.2302 31.8424 14.2098 31.8628 14.1791C31.9445 14.1689 32.0108 14.1434 32.0619 14.1026C32.1231 14.0618 32.1844 14.026 32.2456 13.9954C32.3068 13.9648 32.3681 13.9444 32.4293 13.9342C32.5008 13.9138 32.5722 13.8781 32.6437 13.827C32.7355 13.8372 32.807 13.8321 32.858 13.8117C32.909 13.7811 32.9601 13.7454 33.0111 13.7045C33.0825 13.725 33.1489 13.725 33.2101 13.7045C33.2816 13.6841 33.3428 13.6637 33.3938 13.6433C33.4755 13.6127 33.5725 13.5821 33.6847 13.5514C33.8072 13.5208 33.9246 13.4953 34.0369 13.4749C34.1185 13.4545 34.1951 13.4392 34.2665 13.429C34.3482 13.4085 34.4298 13.383 34.5115 13.3524C34.5931 13.332 34.6442 13.3167 34.6646 13.3065C34.685 13.2963 34.7054 13.2912 34.7258 13.2912C34.7462 13.281 34.7717 13.281 34.8024 13.2912C34.833 13.2912 34.8636 13.2912 34.8942 13.2912C34.9759 13.3218 35.0269 13.3371 35.0473 13.3371C35.0677 13.3269 35.0881 13.3218 35.1086 13.3218C35.2106 13.3524 35.2821 13.3677 35.3229 13.3677C35.4964 13.4188 35.6291 13.4494 35.721 13.4596C35.8128 13.4698 35.8894 13.5055 35.9506 13.5667C36.0221 13.5361 36.1037 13.5259 36.1956 13.5361C36.2976 13.5463 36.3895 13.5514 36.4711 13.5514C36.5222 13.5514 36.5579 13.5667 36.5783 13.5974C36.5987 13.628 36.6242 13.6484 36.6549 13.6586C36.7671 13.6586 36.8692 13.6739 36.9611 13.7045C37.0325 13.7352 37.0887 13.7505 37.1295 13.7505C37.1703 13.7403 37.2009 13.7403 37.2213 13.7505C37.252 13.7607 37.2826 13.776 37.3132 13.7964C37.354 13.8066 37.3846 13.8168 37.4051 13.827C37.4969 13.8576 37.5786 13.8832 37.65 13.9036C37.7317 13.9138 37.798 13.9597 37.849 14.0414C37.8899 14.0414 37.9154 14.0312 37.9256 14.0107C37.9358 13.9801 37.9664 13.975 38.0175 13.9954C38.0991 14.0363 38.191 14.0618 38.293 14.072C38.4053 14.0822 38.5125 14.1077 38.6145 14.1485C38.7064 14.1996 38.7625 14.2404 38.783 14.271C38.8136 14.2914 38.8391 14.3067 38.8595 14.3169C38.9105 14.3374 38.9565 14.3578 38.9973 14.3782C39.0483 14.3884 39.0789 14.419 39.0892 14.47C39.1402 14.47 39.181 14.4802 39.2116 14.5007C39.2525 14.5109 39.2882 14.5262 39.3188 14.5466C39.3698 14.5772 39.4158 14.6129 39.4566 14.6538C39.4974 14.6946 39.5434 14.7354 39.5944 14.7762C39.6556 14.8477 39.7016 14.8885 39.7322 14.8987C39.773 14.9089 39.8036 14.9191 39.824 14.9293C39.8547 14.9702 39.8802 15.011 39.9006 15.0518C39.921 15.0824 39.9414 15.1131 39.9618 15.1437C40.0435 15.1539 40.1047 15.1794 40.1455 15.2202C40.1864 15.2611 40.2425 15.2917 40.314 15.3121C40.365 15.3937 40.4262 15.4652 40.4977 15.5264C40.5691 15.6081 40.6099 15.6693 40.6202 15.7101C40.6406 15.7408 40.661 15.7714 40.6814 15.802C40.7018 15.8326 40.7171 15.8683 40.7273 15.9092C40.7375 15.9398 40.7528 15.9755 40.7733 16.0163C40.8039 16.0674 40.8447 16.1337 40.8957 16.2154C40.9468 16.2868 40.9621 16.3787 40.9417 16.491C40.9927 16.5216 41.0284 16.5675 41.0488 16.6287C41.0692 16.69 41.0999 16.7512 41.1407 16.8125C41.1917 16.8941 41.2172 16.9554 41.2172 16.9962C41.2172 17.0268 41.2223 17.0523 41.2326 17.0727C41.253 17.1238 41.2683 17.185 41.2785 17.2565C41.2989 17.3279 41.3142 17.3993 41.3244 17.4708C41.3346 17.5218 41.3346 17.5627 41.3244 17.5933C41.3142 17.6239 41.3142 17.6545 41.3244 17.6851C41.3448 17.7872 41.3703 17.8842 41.401 17.976C41.4418 18.0577 41.4877 18.1393 41.5388 18.221C41.5285 18.3435 41.5234 18.4557 41.5234 18.5578C41.5336 18.6599 41.5336 18.7772 41.5234 18.9099C41.5132 19.0426 41.5183 19.1855 41.5388 19.3386C41.5694 19.4815 41.5796 19.6397 41.5694 19.8132ZM39.9159 18.7415C39.9159 18.6905 39.9057 18.6395 39.8853 18.5884C39.8751 18.5374 39.87 18.4864 39.87 18.4353C39.87 18.3843 39.87 18.3384 39.87 18.2975C39.8802 18.2465 39.8802 18.1955 39.87 18.1444C39.8598 18.1036 39.8444 18.0679 39.824 18.0373C39.8036 18.0066 39.7832 17.9709 39.7628 17.9301C39.7526 17.8791 39.7577 17.8433 39.7781 17.8229C39.8087 17.8025 39.8036 17.777 39.7628 17.7464C39.7322 17.6851 39.7016 17.6137 39.6709 17.532C39.6505 17.4504 39.6301 17.3687 39.6097 17.2871C39.5382 17.2156 39.4923 17.1697 39.4719 17.1493C39.4515 17.1187 39.4311 17.088 39.4107 17.0574C39.3494 16.9758 39.3086 16.9196 39.2882 16.889C39.278 16.8482 39.2627 16.8176 39.2423 16.7972C39.1708 16.7257 39.0892 16.6645 38.9973 16.6134C38.9054 16.5522 38.8136 16.4859 38.7217 16.4144C38.6707 16.3838 38.6248 16.3532 38.5839 16.3225C38.5533 16.2817 38.5125 16.2409 38.4614 16.2001C38.3594 16.1388 38.293 16.0929 38.2624 16.0623C38.242 16.0317 38.2216 16.0061 38.2012 15.9857C38.1195 15.9449 38.0277 15.9245 37.9256 15.9245C37.8235 15.9143 37.7368 15.8683 37.6653 15.7867C37.5326 15.8071 37.4 15.7918 37.2673 15.7408C37.1346 15.6795 36.9815 15.654 36.808 15.6642C36.7773 15.654 36.7518 15.6438 36.7314 15.6336C36.711 15.6132 36.6804 15.5928 36.6396 15.5724C36.5579 15.603 36.4916 15.6132 36.4405 15.603C36.3895 15.5826 36.3385 15.5621 36.2874 15.5417C36.2466 15.5315 36.2109 15.5213 36.1803 15.5111C36.1496 15.5009 36.119 15.4907 36.0884 15.4805C36.017 15.4601 35.9455 15.4397 35.8741 15.4193C35.8026 15.3988 35.7363 15.3835 35.675 15.3733C35.5832 15.3937 35.5066 15.3937 35.4454 15.3733C35.3841 15.3529 35.328 15.3427 35.277 15.3427C35.2259 15.3427 35.1698 15.3529 35.1086 15.3733C35.0575 15.3835 35.0116 15.3886 34.9708 15.3886C34.8177 15.3478 34.6748 15.3274 34.5421 15.3274C34.4196 15.3172 34.3278 15.3019 34.2665 15.2815C34.2155 15.2611 34.1644 15.2457 34.1134 15.2355C34.0726 15.2253 34.0318 15.2049 33.9909 15.1743C33.9603 15.2151 33.9297 15.2406 33.8991 15.2508C33.8787 15.2611 33.8582 15.2764 33.8378 15.2968C33.7664 15.3172 33.7102 15.3529 33.6694 15.4039C33.6286 15.4448 33.5827 15.4805 33.5316 15.5111C33.4806 15.5315 33.4245 15.5519 33.3632 15.5724C33.3122 15.5826 33.2612 15.603 33.2101 15.6336C33.1897 15.654 33.1693 15.6744 33.1489 15.6948C33.1285 15.7152 33.1081 15.7357 33.0876 15.7561C33.0672 15.7765 33.0417 15.7918 33.0111 15.802C32.9805 15.8122 32.955 15.8275 32.9345 15.8479C32.8835 15.8888 32.8376 15.9347 32.7968 15.9857C32.7661 16.0266 32.7202 16.0572 32.659 16.0776C32.6386 16.1286 32.6028 16.1797 32.5518 16.2307C32.511 16.2817 32.4752 16.3328 32.4446 16.3838C32.4038 16.4348 32.363 16.4859 32.3221 16.5369C32.2915 16.5879 32.2456 16.6236 32.1844 16.6441C32.1844 16.7257 32.169 16.7921 32.1384 16.8431C32.1078 16.8839 32.0874 16.9452 32.0772 17.0268C32.0159 17.1085 31.9751 17.1697 31.9547 17.2105C31.9343 17.2514 31.9139 17.2973 31.8935 17.3483C31.8424 17.4606 31.8016 17.5371 31.771 17.578C31.7506 17.6188 31.7302 17.6596 31.7097 17.7004C31.6689 17.8025 31.6332 17.874 31.6026 17.9148C31.5617 17.9964 31.5311 18.0628 31.5107 18.1138C31.4903 18.1546 31.4699 18.2261 31.4495 18.3282C31.4291 18.4302 31.4035 18.5425 31.3729 18.665C31.3525 18.7772 31.3474 18.8691 31.3576 18.9406C31.3372 19.012 31.327 19.0681 31.327 19.109C31.3372 19.1396 31.3372 19.1702 31.327 19.2008C31.2658 19.4254 31.2402 19.6142 31.2504 19.7673C31.2709 19.9102 31.2913 20.0531 31.3117 20.196C31.3219 20.3082 31.3219 20.4154 31.3117 20.5175C31.3015 20.6093 31.3066 20.691 31.327 20.7624C31.327 20.8033 31.3372 20.8441 31.3576 20.8849C31.378 20.9155 31.3984 20.9462 31.4189 20.9768C31.4291 21.0278 31.4342 21.0737 31.4342 21.1146C31.4342 21.1452 31.4444 21.186 31.4648 21.237C31.5056 21.3493 31.5362 21.4463 31.5566 21.5279C31.5771 21.6096 31.5975 21.6657 31.6179 21.6963C31.6485 21.7372 31.6791 21.7729 31.7097 21.8035C31.7506 21.8239 31.7863 21.8546 31.8169 21.8954C31.8475 21.9362 31.8731 21.977 31.8935 22.0179C31.9139 22.0587 31.9394 22.1046 31.97 22.1556C32.0313 22.2373 32.067 22.2934 32.0772 22.3241C32.0976 22.3445 32.118 22.3649 32.1384 22.3853C32.169 22.4261 32.1997 22.4618 32.2303 22.4925C32.2711 22.5129 32.3068 22.5435 32.3375 22.5843C32.3681 22.6252 32.3936 22.6711 32.414 22.7221C32.4446 22.7629 32.4752 22.8089 32.5059 22.8599C32.659 22.9416 32.7968 23.0334 32.9192 23.1355C33.0417 23.2273 33.1642 23.3345 33.2867 23.457C33.4194 23.4774 33.5469 23.5131 33.6694 23.5642C33.8021 23.6152 33.9246 23.6611 34.0369 23.702C34.0777 23.7122 34.1185 23.7275 34.1593 23.7479C34.2104 23.7581 34.2614 23.7683 34.3124 23.7785C34.3533 23.7785 34.3941 23.7734 34.4349 23.7632C34.4757 23.753 34.5217 23.7479 34.5727 23.7479C34.6646 23.7581 34.7411 23.7785 34.8024 23.8091C34.8738 23.8295 34.9504 23.85 35.032 23.8704C35.1239 23.8806 35.2106 23.8857 35.2923 23.8857C35.3739 23.8755 35.4556 23.8908 35.5372 23.9316C35.5883 23.901 35.6291 23.8857 35.6597 23.8857C35.7005 23.8857 35.7465 23.8908 35.7975 23.901C35.8996 23.8295 36.017 23.7989 36.1496 23.8091C36.2823 23.8193 36.415 23.8091 36.5477 23.7785C36.5987 23.7377 36.6345 23.7173 36.6549 23.7173C36.6753 23.7173 36.6957 23.7122 36.7161 23.702C36.7876 23.6713 36.8488 23.6407 36.8998 23.6101C36.9509 23.5795 37.007 23.554 37.0682 23.5335C37.0989 23.5233 37.1346 23.5131 37.1754 23.5029C37.2162 23.4927 37.252 23.4825 37.2826 23.4723C37.3336 23.4111 37.3744 23.3753 37.4051 23.3651C37.4357 23.3549 37.4612 23.3447 37.4816 23.3345C37.5122 23.3141 37.5428 23.2937 37.5735 23.2733C37.6041 23.2427 37.6449 23.2325 37.6959 23.2427C37.7266 23.1814 37.7674 23.1406 37.8184 23.1202C37.8797 23.0896 37.946 23.064 38.0175 23.0436C38.0379 23.0028 38.0583 22.9773 38.0787 22.9671C38.0991 22.9467 38.1195 22.9263 38.1399 22.9058C38.191 22.8548 38.2318 22.814 38.2624 22.7834C38.293 22.7527 38.3134 22.7323 38.3237 22.7221C38.3951 22.6201 38.4768 22.5231 38.5686 22.4312C38.5788 22.3802 38.5941 22.3496 38.6145 22.3394C38.6452 22.319 38.6707 22.2985 38.6911 22.2781C38.7013 22.2271 38.7166 22.1812 38.737 22.1403C38.7574 22.0893 38.7779 22.0434 38.7983 22.0025C38.8187 21.9515 38.8391 21.9107 38.8595 21.8801C38.8901 21.8392 38.9054 21.7882 38.9054 21.727C38.9565 21.7066 38.9871 21.6759 38.9973 21.6351C39.0177 21.5841 39.0381 21.533 39.0585 21.482C39.1198 21.3697 39.1606 21.2932 39.181 21.2524C39.2116 21.2115 39.2372 21.1758 39.2576 21.1452C39.278 21.1044 39.2933 21.0737 39.3035 21.0533C39.3137 21.0227 39.329 20.9921 39.3494 20.9615C39.3903 20.8492 39.4209 20.7777 39.4413 20.7471C39.4617 20.7165 39.477 20.691 39.4872 20.6706C39.4974 20.6298 39.4974 20.5889 39.4872 20.5481C39.4872 20.4971 39.4974 20.446 39.5178 20.395C39.5382 20.3542 39.5587 20.3185 39.5791 20.2878C39.6097 20.247 39.6301 20.1909 39.6403 20.1194C39.6505 20.0786 39.6454 20.0378 39.625 19.9969C39.6148 19.9459 39.6148 19.8949 39.625 19.8438C39.6352 19.803 39.6505 19.7622 39.6709 19.7214C39.6913 19.6805 39.7118 19.6346 39.7322 19.5836C39.7526 19.5121 39.773 19.4407 39.7934 19.3692C39.824 19.2978 39.8342 19.2468 39.824 19.2161C39.8444 19.1447 39.8547 19.0937 39.8547 19.063C39.8547 19.0222 39.8547 18.9916 39.8547 18.9712C39.8649 18.9201 39.8751 18.8793 39.8853 18.8487C39.9057 18.8181 39.9159 18.7823 39.9159 18.7415ZM51.7658 25.2483C51.776 25.2993 51.7607 25.3299 51.7199 25.3401C51.6893 25.3503 51.6638 25.3758 51.6433 25.4167C51.6229 25.4371 51.6076 25.4626 51.5974 25.4932C51.5974 25.5341 51.577 25.5545 51.5362 25.5545C51.4647 25.5545 51.4188 25.5596 51.3984 25.5698C51.378 25.58 51.3576 25.58 51.3371 25.5698C51.3065 25.5698 51.2759 25.5596 51.2453 25.5392C51.2147 25.5187 51.1738 25.5034 51.1228 25.4932C51.0207 25.483 50.9187 25.4881 50.8166 25.5085C50.7247 25.5289 50.6329 25.5392 50.541 25.5392C50.5104 25.5392 50.4747 25.5341 50.4339 25.5238C50.4032 25.5136 50.3726 25.5085 50.342 25.5085C50.2399 25.5085 50.143 25.5085 50.0511 25.5085C49.9592 25.5187 49.8623 25.5136 49.7602 25.4932C49.7194 25.483 49.6786 25.4677 49.6377 25.4473C49.6071 25.4269 49.5663 25.4218 49.5153 25.432C49.505 25.381 49.4795 25.3452 49.4387 25.3248C49.4081 25.3044 49.3877 25.2687 49.3775 25.2176C49.357 25.1258 49.3673 25.0288 49.4081 24.9268C49.4489 24.8247 49.4591 24.7277 49.4387 24.6359C49.4999 24.5236 49.5357 24.4113 49.5459 24.299C49.5357 24.248 49.5306 24.2021 49.5306 24.1613C49.5408 24.1102 49.5459 24.0745 49.5459 24.0541C49.5663 24.0031 49.5714 23.9265 49.5612 23.8244C49.551 23.7224 49.551 23.6254 49.5612 23.5335C49.5714 23.4315 49.5765 23.3294 49.5765 23.2273C49.5765 23.1151 49.5765 22.9926 49.5765 22.8599C49.5663 22.7476 49.5561 22.6711 49.5459 22.6303C49.5357 22.5792 49.5255 22.5333 49.5153 22.4925C49.5357 22.3904 49.5408 22.3343 49.5306 22.3241C49.5204 22.3036 49.5153 22.2781 49.5153 22.2475C49.5255 22.1454 49.5204 22.074 49.4999 22.0332C49.4897 21.9923 49.4795 21.9515 49.4693 21.9107C49.4693 21.8801 49.4744 21.8546 49.4846 21.8341C49.4948 21.8035 49.4999 21.7729 49.4999 21.7423C49.4999 21.63 49.4948 21.5484 49.4846 21.4973C49.4744 21.4361 49.4642 21.3799 49.454 21.3289C49.454 21.2881 49.4591 21.2473 49.4693 21.2064C49.4795 21.1554 49.4591 21.1197 49.4081 21.0993C49.4285 21.0686 49.4387 21.0125 49.4387 20.9308C49.4183 20.8186 49.4081 20.7369 49.4081 20.6859C49.4081 20.6349 49.4081 20.594 49.4081 20.5634C49.3877 20.492 49.3775 20.4511 49.3775 20.4409C49.3775 20.4205 49.3775 20.4052 49.3775 20.395C49.3673 20.3542 49.3519 20.3082 49.3315 20.2572C49.3213 20.196 49.306 20.1398 49.2856 20.0888C49.306 20.0276 49.306 19.9714 49.2856 19.9204C49.2754 19.8592 49.2601 19.7979 49.2397 19.7367C49.2193 19.655 49.1988 19.6091 49.1784 19.5989C49.1682 19.5785 49.158 19.5581 49.1478 19.5376C49.0866 19.3845 49.0304 19.2468 48.9794 19.1243C48.9386 18.9916 48.908 18.8436 48.8875 18.6803C48.8365 18.619 48.7804 18.5629 48.7191 18.5119C48.6681 18.4608 48.6273 18.3945 48.5967 18.3128C48.4844 18.2516 48.3874 18.2006 48.3058 18.1597C48.2343 18.1087 48.1118 18.0934 47.9383 18.1138C47.9077 18.1138 47.872 18.124 47.8312 18.1444C47.7903 18.1546 47.7495 18.1648 47.7087 18.1751C47.627 18.2057 47.5505 18.2312 47.479 18.2516C47.4178 18.2618 47.3514 18.2873 47.28 18.3282C47.2188 18.3792 47.1728 18.4047 47.1422 18.4047C47.1218 18.4047 47.1065 18.4098 47.0963 18.42C47.0657 18.4404 47.0401 18.471 47.0197 18.5119C46.9993 18.5425 46.9789 18.568 46.9585 18.5884C46.9075 18.6497 46.8717 18.6956 46.8513 18.7262C46.8411 18.7466 46.8258 18.767 46.8054 18.7875C46.785 18.8181 46.7544 18.8589 46.7135 18.9099C46.6727 18.9508 46.6319 18.9814 46.591 19.0018C46.591 19.0426 46.5757 19.0732 46.5451 19.0937C46.5145 19.1141 46.489 19.1396 46.4686 19.1702C46.4482 19.2314 46.4277 19.2672 46.4073 19.2774C46.3869 19.2876 46.3716 19.2978 46.3614 19.308C46.3308 19.359 46.3053 19.4203 46.2848 19.4917C46.2644 19.5632 46.2236 19.6142 46.1624 19.6448C46.1522 19.7367 46.1317 19.8081 46.1011 19.8592C46.0705 19.9102 46.0297 19.9612 45.9786 20.0123C45.9889 20.1551 45.9633 20.2572 45.9021 20.3185C45.8409 20.3797 45.7898 20.4562 45.749 20.5481C45.7286 20.6604 45.7082 20.7522 45.6878 20.8237C45.6776 20.8849 45.6622 20.9411 45.6418 20.9921C45.6214 21.0431 45.6061 21.0993 45.5959 21.1605C45.5857 21.2115 45.5653 21.2575 45.5347 21.2983C45.5551 21.4412 45.5398 21.579 45.4887 21.7117C45.4377 21.8443 45.402 21.9872 45.3816 22.1403C45.3714 22.171 45.3662 22.2067 45.3662 22.2475C45.3765 22.2883 45.3765 22.3241 45.3662 22.3547C45.356 22.4465 45.3458 22.5588 45.3356 22.6915C45.3254 22.814 45.3152 22.9314 45.305 23.0436C45.305 23.064 45.305 23.0896 45.305 23.1202C45.3152 23.1508 45.3203 23.1814 45.3203 23.212C45.3203 23.2835 45.3101 23.3549 45.2897 23.4264C45.2795 23.4876 45.2744 23.554 45.2744 23.6254C45.2642 23.6764 45.2693 23.7326 45.2897 23.7938C45.3101 23.8448 45.3152 23.8959 45.305 23.9469C45.2948 24.0388 45.2897 24.1102 45.2897 24.1613C45.2999 24.2123 45.3101 24.2582 45.3203 24.299C45.3305 24.3399 45.3356 24.3807 45.3356 24.4215C45.3458 24.4521 45.3662 24.4777 45.3969 24.4981C45.3765 24.5899 45.3765 24.6767 45.3969 24.7583C45.4173 24.84 45.4479 24.9165 45.4887 24.988C45.5296 25.0492 45.5193 25.1258 45.4581 25.2176C45.3765 25.3299 45.2591 25.3707 45.106 25.3401C44.9529 25.3197 44.7896 25.3146 44.6161 25.3248C44.5344 25.3248 44.463 25.3299 44.4017 25.3401C44.3405 25.3503 44.2792 25.3554 44.218 25.3554C44.1466 25.3656 44.0751 25.3758 44.0037 25.3861C43.9322 25.3963 43.8659 25.3912 43.8046 25.3707C43.774 25.3707 43.7434 25.3605 43.7128 25.3401C43.6821 25.3299 43.6566 25.3146 43.6362 25.2942C43.5546 25.2636 43.5035 25.2381 43.4831 25.2176C43.4525 25.1666 43.4372 25.1156 43.4372 25.0645C43.4474 25.0033 43.4474 24.9472 43.4372 24.8961C43.4372 24.8655 43.427 24.8349 43.4066 24.8043C43.3964 24.7634 43.3913 24.7226 43.3913 24.6818C43.3913 24.6001 43.3964 24.5185 43.4066 24.4368C43.4168 24.3552 43.427 24.2735 43.4372 24.1919C43.4372 24.1102 43.4423 24.0388 43.4525 23.9775C43.4627 23.9061 43.4678 23.8397 43.4678 23.7785C43.4678 23.7275 43.4627 23.6713 43.4525 23.6101C43.4525 23.5489 43.478 23.4927 43.529 23.4417C43.4984 23.36 43.4882 23.309 43.4984 23.2886C43.5188 23.258 43.529 23.2376 43.529 23.2273C43.529 23.1763 43.5188 23.11 43.4984 23.0283V22.5078C43.4882 22.4057 43.478 22.3036 43.4678 22.2016C43.4576 22.0995 43.4474 21.9821 43.4372 21.8494C43.4372 21.7984 43.4321 21.7576 43.4219 21.727C43.4117 21.6963 43.4066 21.6708 43.4066 21.6504C43.427 21.5688 43.427 21.5126 43.4066 21.482C43.3964 21.4412 43.3913 21.4055 43.3913 21.3748C43.3913 21.2932 43.4015 21.2013 43.4219 21.0993C43.4321 21.0686 43.4423 21.0431 43.4525 21.0227C43.4627 20.9921 43.4729 20.9615 43.4831 20.9308C43.4627 20.8492 43.4576 20.7931 43.4678 20.7624C43.478 20.7318 43.4831 20.7063 43.4831 20.6859C43.4729 20.6042 43.4576 20.5124 43.4372 20.4103C43.427 20.3082 43.4474 20.2011 43.4984 20.0888C43.478 20.0378 43.4576 19.9816 43.4372 19.9204C43.4168 19.8592 43.4321 19.8081 43.4831 19.7673C43.4627 19.7163 43.4423 19.6703 43.4219 19.6295C43.4015 19.5785 43.3913 19.5172 43.3913 19.4458C43.4117 19.3029 43.4117 19.16 43.3913 19.0171C43.3811 18.8742 43.4015 18.767 43.4525 18.6956C43.4015 18.6139 43.3862 18.517 43.4066 18.4047C43.427 18.2822 43.4321 18.1597 43.4219 18.0373C43.4117 18.0066 43.4015 17.976 43.3913 17.9454C43.3811 17.9148 43.3759 17.8842 43.3759 17.8535C43.3555 17.7719 43.3504 17.6902 43.3606 17.6086C43.3708 17.5269 43.3708 17.4504 43.3606 17.3789C43.3096 17.236 43.279 17.1034 43.2688 16.9809C43.2586 16.8482 43.2382 16.741 43.2075 16.6594C43.2382 16.639 43.2586 16.6134 43.2688 16.5828C43.2892 16.5522 43.3096 16.5216 43.33 16.491C43.4015 16.4705 43.4831 16.4654 43.575 16.4756C43.677 16.4859 43.7434 16.5216 43.774 16.5828C43.825 16.542 43.8761 16.5267 43.9271 16.5369C43.9883 16.5471 44.0496 16.5573 44.1108 16.5675C44.1517 16.5675 44.2078 16.5675 44.2792 16.5675C44.3507 16.5573 44.4221 16.5522 44.4936 16.5522C44.5956 16.542 44.6875 16.5369 44.7692 16.5369C44.8508 16.5369 44.9325 16.5369 45.0141 16.5369C45.0447 16.5675 45.0703 16.593 45.0907 16.6134C45.1111 16.6338 45.1315 16.6645 45.1519 16.7053C45.2029 16.7972 45.2336 16.9298 45.2438 17.1034C45.2642 17.2667 45.2846 17.4198 45.305 17.5627C45.356 17.5729 45.3816 17.5576 45.3816 17.5167C45.3918 17.4759 45.4071 17.4453 45.4275 17.4249C45.4785 17.3942 45.5296 17.3636 45.5806 17.333C45.6316 17.3024 45.6827 17.2616 45.7337 17.2105C45.7745 17.2003 45.8051 17.1901 45.8255 17.1799C45.8562 17.1595 45.897 17.1544 45.948 17.1646C45.9786 17.1442 46.0042 17.1187 46.0246 17.088C46.045 17.0472 46.0654 17.0166 46.0858 16.9962C46.1368 16.986 46.1981 16.9452 46.2695 16.8737C46.2899 16.8635 46.3206 16.8533 46.3614 16.8431C46.4022 16.8329 46.4226 16.8074 46.4226 16.7665C46.4839 16.7665 46.5349 16.7512 46.5757 16.7206C46.6268 16.6798 46.6778 16.6441 46.7288 16.6134C46.8309 16.5624 46.8972 16.5267 46.9279 16.5063C46.9585 16.4756 46.984 16.4552 47.0044 16.445C47.0248 16.4348 47.0503 16.4348 47.081 16.445C47.1218 16.445 47.1677 16.4399 47.2188 16.4297L47.4025 16.3838C47.5045 16.3634 47.576 16.3481 47.6168 16.3379C47.6576 16.3276 47.6934 16.3225 47.724 16.3225C47.775 16.3123 47.8261 16.3072 47.8771 16.3072C47.9281 16.297 47.9689 16.2919 47.9996 16.2919C48.0812 16.3225 48.1629 16.3379 48.2445 16.3379C48.3262 16.3379 48.3925 16.343 48.4436 16.3532C48.5558 16.394 48.6426 16.4195 48.7038 16.4297C48.7753 16.4399 48.8365 16.4501 48.8875 16.4603C48.9386 16.5012 48.9947 16.5267 49.056 16.5369C49.1478 16.5675 49.2091 16.593 49.2397 16.6134C49.2805 16.6236 49.3315 16.6594 49.3928 16.7206C49.4132 16.741 49.4336 16.7665 49.454 16.7972C49.4744 16.8176 49.4846 16.8431 49.4846 16.8737C49.5459 16.9247 49.602 16.9707 49.653 17.0115C49.7143 17.0523 49.7755 17.1034 49.8368 17.1646C49.8572 17.185 49.8725 17.2105 49.8827 17.2411C49.8929 17.2718 49.9082 17.2973 49.9286 17.3177C49.9592 17.3483 49.9899 17.3738 50.0205 17.3942C50.0613 17.4147 50.097 17.4402 50.1277 17.4708C50.1583 17.4912 50.1838 17.5218 50.2042 17.5627C50.2246 17.6035 50.2552 17.629 50.2961 17.6392C50.2961 17.7107 50.3216 17.7719 50.3726 17.8229C50.4339 17.8638 50.4747 17.9097 50.4951 17.9607C50.5155 18.0117 50.5257 18.0679 50.5257 18.1291C50.5359 18.1802 50.5665 18.2312 50.6176 18.2822C50.6278 18.3741 50.6533 18.4608 50.6941 18.5425C50.7452 18.6241 50.7911 18.7109 50.8319 18.8028C50.8523 18.8538 50.8676 18.9048 50.8778 18.9559C50.888 18.9967 50.9034 19.0426 50.9238 19.0937C50.9442 19.1447 50.9595 19.1906 50.9697 19.2314C50.9799 19.2621 50.9952 19.2978 51.0156 19.3386C51.0463 19.4509 51.0616 19.5274 51.0616 19.5683C51.0616 19.5989 51.0667 19.6295 51.0769 19.6601C51.1585 19.8234 51.2198 20.0071 51.2606 20.2113C51.281 20.3133 51.2963 20.3797 51.3065 20.4103C51.3167 20.4409 51.3218 20.4664 51.3218 20.4869C51.332 20.5379 51.3371 20.5838 51.3371 20.6247C51.3371 20.6655 51.3422 20.7114 51.3524 20.7624C51.3524 20.8033 51.3576 20.8441 51.3678 20.8849C51.378 20.9257 51.3831 20.9666 51.3831 21.0074C51.3933 21.0482 51.3933 21.0891 51.3831 21.1299C51.3729 21.1605 51.3729 21.2013 51.3831 21.2524C51.3933 21.334 51.4086 21.4208 51.429 21.5126C51.4494 21.5943 51.4698 21.6759 51.4902 21.7576C51.5107 21.8086 51.5055 21.8443 51.4749 21.8648C51.4545 21.8852 51.4443 21.9158 51.4443 21.9566C51.4647 21.9974 51.48 22.0434 51.4902 22.0944C51.5107 22.1454 51.526 22.1965 51.5362 22.2475C51.5362 22.2679 51.5311 22.2934 51.5209 22.3241C51.5107 22.3547 51.5055 22.3853 51.5055 22.4159C51.5055 22.4772 51.5107 22.5435 51.5209 22.6149C51.5311 22.6864 51.5055 22.7476 51.4443 22.7987C51.4953 22.8905 51.526 22.9977 51.5362 23.1202C51.5464 23.2427 51.5311 23.3549 51.4902 23.457C51.4698 23.508 51.4749 23.5386 51.5055 23.5489C51.5362 23.5489 51.5464 23.5744 51.5362 23.6254C51.4953 23.7071 51.48 23.7836 51.4902 23.8551C51.5107 23.9163 51.5107 23.9877 51.4902 24.0694C51.4902 24.1204 51.48 24.1613 51.4596 24.1919C51.4494 24.2123 51.4443 24.2429 51.4443 24.2837C51.4239 24.3246 51.429 24.3705 51.4596 24.4215C51.4902 24.4624 51.4851 24.5083 51.4443 24.5593C51.4545 24.6103 51.4698 24.6563 51.4902 24.6971C51.5209 24.7277 51.526 24.789 51.5055 24.8808C51.526 24.9114 51.5515 24.937 51.5821 24.9574C51.6127 24.9676 51.6433 24.9829 51.674 25.0033C51.6535 25.0748 51.6638 25.1156 51.7046 25.1258C51.7454 25.1462 51.7658 25.187 51.7658 25.2483Z" fill="#D9292F"/>
<path d="M22.7114 39.9882C22.7114 40.0494 22.7012 40.1209 22.6808 40.2025C22.6706 40.274 22.6552 40.3505 22.6348 40.4322C22.6144 40.5138 22.594 40.5751 22.5736 40.6159C22.5634 40.6465 22.5583 40.6822 22.5583 40.723C22.5685 40.7639 22.5685 40.7945 22.5583 40.8149C22.5379 40.8659 22.5123 40.917 22.4817 40.968C22.4613 41.019 22.4409 41.0701 22.4205 41.1211C22.4001 41.1721 22.3797 41.2283 22.3592 41.2895C22.349 41.3406 22.3337 41.3865 22.3133 41.4273C22.2929 41.4579 22.2623 41.4834 22.2215 41.5039C22.1908 41.5243 22.1806 41.56 22.1908 41.611C22.0888 41.6519 22.0071 41.6978 21.9459 41.7488C21.8948 41.7896 21.854 41.8305 21.8234 41.8713C21.7928 41.9121 21.752 41.953 21.7009 41.9938C21.6805 42.0142 21.6499 42.0346 21.6091 42.055C21.5682 42.0754 21.5274 42.0958 21.4866 42.1163C21.4049 42.1673 21.3437 42.2081 21.3029 42.2387C21.2722 42.2592 21.2467 42.2796 21.2263 42.3C21.2059 42.3102 21.1753 42.3153 21.1345 42.3153C21.1038 42.3153 21.0783 42.3255 21.0579 42.3459C20.9865 42.3969 20.9099 42.4378 20.8283 42.4684C20.7568 42.4888 20.6956 42.5245 20.6445 42.5756C20.6037 42.5858 20.568 42.5858 20.5374 42.5756C20.5067 42.5654 20.4761 42.5654 20.4455 42.5756C20.3434 42.6062 20.2771 42.6317 20.2465 42.6521C20.2261 42.6623 20.2005 42.6725 20.1699 42.6827C20.1087 42.7031 20.0576 42.7185 20.0168 42.7287C19.9862 42.7287 19.9505 42.7389 19.9097 42.7593C19.7872 42.8001 19.6851 42.8205 19.6035 42.8205C19.5218 42.8205 19.4452 42.8307 19.3738 42.8511C19.3228 42.8716 19.2819 42.8818 19.2513 42.8818C19.2309 42.8818 19.2105 42.8869 19.1901 42.8971C19.1697 42.8971 19.1391 42.9073 19.0982 42.9277C19.0676 42.9379 19.0421 42.9481 19.0217 42.9583C18.94 42.9379 18.8686 42.9328 18.8073 42.943C18.7563 42.943 18.7053 42.943 18.6542 42.943C18.5828 42.943 18.5011 42.9481 18.4093 42.9583C18.3174 42.9685 18.2307 42.9787 18.149 42.9889C18.0878 42.9889 18.0214 42.9838 17.95 42.9736C17.8887 42.9634 17.8224 42.9634 17.7509 42.9736C17.6795 42.9838 17.5978 42.9991 17.506 43.0195C17.4243 43.04 17.3478 43.0144 17.2763 42.943C17.2151 42.9838 17.1488 42.994 17.0773 42.9736C17.0161 42.9532 16.9497 42.9481 16.8783 42.9583C16.8068 42.9685 16.7405 42.994 16.6792 43.0349C16.6282 43.0757 16.5619 43.0859 16.4802 43.0655C16.4088 43.1267 16.3526 43.1624 16.3118 43.1726C16.271 43.1726 16.2404 43.1778 16.2199 43.188C16.1383 43.2186 16.0515 43.2543 15.9597 43.2951C15.878 43.336 15.7811 43.3206 15.6688 43.2492C15.5973 43.2798 15.5055 43.2849 15.3932 43.2645C15.332 43.2033 15.2656 43.1114 15.1942 42.9889C15.1942 42.9073 15.2095 42.8358 15.2401 42.7746C15.2707 42.7031 15.286 42.6317 15.286 42.5602C15.286 42.499 15.2707 42.4429 15.2401 42.3918C15.2197 42.3408 15.2044 42.2847 15.1942 42.2234C15.184 42.1724 15.1789 42.1265 15.1789 42.0856C15.1891 42.0346 15.1942 41.9836 15.1942 41.9325C15.1942 41.8815 15.1891 41.8356 15.1789 41.7947C15.1687 41.7539 15.1585 41.708 15.1482 41.657C15.138 41.5753 15.1329 41.5039 15.1329 41.4426C15.1329 41.3712 15.1431 41.2946 15.1636 41.213C15.1738 41.1721 15.1738 41.1211 15.1636 41.0599C15.1636 40.9884 15.184 40.9119 15.2248 40.8302C15.2146 40.7996 15.2044 40.769 15.1942 40.7384C15.184 40.6975 15.1789 40.6567 15.1789 40.6159C15.1789 40.5648 15.184 40.5138 15.1942 40.4628C15.2146 40.4117 15.2248 40.3607 15.2248 40.3097C15.235 40.2586 15.235 40.2025 15.2248 40.1413C15.2146 40.08 15.2095 40.0188 15.2095 39.9576C15.2197 39.9065 15.2248 39.8606 15.2248 39.8198C15.235 39.7687 15.2401 39.7228 15.2401 39.682C15.2503 39.6514 15.2554 39.6156 15.2554 39.5748C15.2554 39.534 15.2707 39.5085 15.3013 39.4983C15.2809 39.4574 15.2656 39.4268 15.2554 39.4064C15.2554 39.3758 15.2554 39.34 15.2554 39.2992V39.1002C15.2554 39.0594 15.2605 39.0236 15.2707 38.993C15.2911 38.9624 15.3065 38.9267 15.3167 38.8859C15.3167 38.8654 15.3116 38.8399 15.3013 38.8093C15.2911 38.7787 15.286 38.7481 15.286 38.7174C15.3065 38.6358 15.3116 38.5797 15.3013 38.549C15.2911 38.5082 15.2911 38.4725 15.3013 38.4419V38.0591C15.3013 38.0183 15.3065 37.9775 15.3167 37.9366C15.3269 37.8958 15.332 37.855 15.332 37.8142C15.332 37.7733 15.3218 37.7325 15.3013 37.6917C15.2911 37.6508 15.286 37.61 15.286 37.5692C15.286 37.4161 15.2911 37.2579 15.3013 37.0946C15.3218 36.9313 15.3065 36.7731 15.2554 36.62C15.3065 36.5791 15.3218 36.5332 15.3013 36.4822C15.2911 36.4312 15.286 36.3801 15.286 36.3291C15.2962 36.3087 15.3013 36.2781 15.3013 36.2372C15.3013 36.1862 15.3013 36.1352 15.3013 36.0841C15.2809 35.9616 15.2707 35.8239 15.2707 35.6708C15.2809 35.5177 15.2962 35.3543 15.3167 35.1808C15.3371 35.0788 15.3371 35.0124 15.3167 34.9818C15.3065 34.9512 15.3013 34.9206 15.3013 34.8899C15.2911 34.8593 15.286 34.8287 15.286 34.7981C15.2962 34.7675 15.3013 34.742 15.3013 34.7215C15.2911 34.6399 15.2758 34.5531 15.2554 34.4613C15.2452 34.3694 15.2656 34.2673 15.3167 34.1551C15.286 34.1347 15.2707 34.104 15.2707 34.0632C15.2809 34.0224 15.2809 33.9816 15.2707 33.9407C15.2605 33.8999 15.2452 33.8642 15.2248 33.8336C15.2146 33.8029 15.2044 33.7672 15.1942 33.7264C15.2146 33.5937 15.2146 33.4814 15.1942 33.3896C15.1738 33.2977 15.1891 33.2263 15.2401 33.1752C15.2197 33.1242 15.1993 33.0885 15.1789 33.0681C15.1585 33.0476 15.1482 33.0119 15.1482 32.9609C15.1585 32.9099 15.1585 32.8486 15.1482 32.7772C15.138 32.7057 15.1482 32.6547 15.1789 32.6241C15.1585 32.5832 15.1329 32.5475 15.1023 32.5169C15.0717 32.4863 15.0666 32.4301 15.087 32.3485C15.0666 32.3077 15.0258 32.2515 14.9645 32.1801C14.9135 32.1086 14.9237 32.0423 14.9951 31.9811C15.036 31.93 15.0972 31.8943 15.1789 31.8739C15.2707 31.8535 15.3626 31.8433 15.4544 31.8433C15.5463 31.8331 15.6331 31.828 15.7147 31.828C15.8066 31.828 15.878 31.8228 15.9291 31.8126C16.0107 31.782 16.072 31.7565 16.1128 31.7361C16.1638 31.7055 16.2455 31.6851 16.3577 31.6749C16.3986 31.6749 16.4292 31.6749 16.4496 31.6749C16.4802 31.6646 16.5159 31.6595 16.5568 31.6595C16.5874 31.6595 16.6231 31.6646 16.6639 31.6749C16.7048 31.6851 16.7354 31.6902 16.7558 31.6902C16.7864 31.6902 16.817 31.6851 16.8477 31.6749C16.8783 31.6544 16.9038 31.6442 16.9242 31.6442C16.9752 31.6442 17.0416 31.6544 17.1232 31.6749H17.5366C17.6183 31.6749 17.6693 31.6697 17.6897 31.6595C17.7101 31.6493 17.7203 31.6493 17.7203 31.6595C17.7407 31.6902 17.7765 31.6953 17.8275 31.6749C17.8785 31.6544 17.9296 31.6442 17.9806 31.6442C18.1031 31.634 18.2358 31.6289 18.3787 31.6289C18.5318 31.6289 18.6746 31.6391 18.8073 31.6595C18.9502 31.68 19.0523 31.7004 19.1135 31.7208C19.185 31.731 19.2564 31.7667 19.3279 31.828C19.532 31.8382 19.7208 31.8841 19.8943 31.9657C20.0679 32.0372 20.2261 32.1137 20.369 32.1954C20.4302 32.2362 20.471 32.2668 20.4914 32.2873C20.5221 32.3077 20.5629 32.3434 20.6139 32.3944C20.6343 32.4148 20.6547 32.4404 20.6752 32.471C20.7058 32.5016 20.7313 32.5271 20.7517 32.5475C20.7721 32.5679 20.7823 32.5986 20.7823 32.6394C20.7925 32.67 20.8078 32.6955 20.8283 32.7159C20.8895 32.7772 20.9201 32.818 20.9201 32.8384C20.9303 32.8486 20.9354 32.8588 20.9354 32.869C20.9967 32.9507 21.0324 33.0119 21.0426 33.0527C21.063 33.0936 21.0834 33.1395 21.1038 33.1905C21.1549 33.2416 21.1957 33.2977 21.2263 33.3589C21.2569 33.4202 21.2978 33.4763 21.3488 33.5274C21.3386 33.5886 21.3386 33.6447 21.3488 33.6958C21.359 33.7468 21.3692 33.7978 21.3794 33.8489C21.3998 33.8999 21.4151 33.9458 21.4253 33.9867C21.4458 34.0173 21.4662 34.053 21.4866 34.0938C21.4866 34.1244 21.4866 34.1602 21.4866 34.201C21.4866 34.2316 21.4917 34.2622 21.5019 34.2929C21.5325 34.4664 21.5223 34.6297 21.4713 34.7828C21.4509 34.8134 21.4304 34.844 21.41 34.8746C21.3998 34.8951 21.3845 34.9206 21.3641 34.9512C21.3437 34.992 21.3335 35.0328 21.3335 35.0737C21.3335 35.1145 21.3233 35.1502 21.3029 35.1808C21.2824 35.2319 21.2518 35.288 21.211 35.3492C21.1702 35.4003 21.1345 35.4513 21.1038 35.5023C21.0834 35.533 21.063 35.5636 21.0426 35.5942C21.0324 35.6146 21.0171 35.6401 20.9967 35.6708C20.9762 35.7116 20.9456 35.7575 20.9048 35.8085C20.8742 35.8494 20.8436 35.8902 20.8129 35.931C20.7823 35.9719 20.7517 36.0127 20.7211 36.0535C20.6905 36.0841 20.6496 36.1147 20.5986 36.1454C20.5169 36.2066 20.4659 36.2576 20.4455 36.2985C20.4251 36.3291 20.4098 36.3495 20.3996 36.3597C20.3792 36.4516 20.3894 36.5077 20.4302 36.5281C20.471 36.5383 20.5016 36.5485 20.5221 36.5587C20.5629 36.5689 20.5986 36.574 20.6292 36.574C20.67 36.5638 20.7058 36.5689 20.7364 36.5894C20.8078 36.6098 20.8691 36.6455 20.9201 36.6965C20.9711 36.7476 21.0222 36.7935 21.0732 36.8343C21.1957 36.9466 21.2927 37.0333 21.3641 37.0946C21.4355 37.1558 21.5121 37.212 21.5938 37.263C21.655 37.3651 21.7213 37.4518 21.7928 37.5233C21.8744 37.5947 21.9357 37.6866 21.9765 37.7988C22.0377 37.8601 22.0786 37.9162 22.099 37.9673C22.1194 38.0081 22.15 38.0438 22.1908 38.0744C22.201 38.0948 22.2113 38.1204 22.2215 38.151C22.2419 38.1816 22.2623 38.2071 22.2827 38.2275C22.3337 38.2888 22.3746 38.3704 22.4052 38.4725C22.446 38.5643 22.4868 38.6562 22.5277 38.7481C22.5481 38.7991 22.5583 38.8501 22.5583 38.9012C22.5583 38.9522 22.5685 39.0236 22.5889 39.1155C22.6093 39.2176 22.6399 39.3503 22.6808 39.5136C22.7216 39.6769 22.7318 39.8351 22.7114 39.9882ZM19.4657 34.6603C19.4248 34.5991 19.4095 34.5174 19.4197 34.4153C19.4299 34.3133 19.4248 34.2163 19.4044 34.1244C19.3738 34.0734 19.3585 34.0377 19.3585 34.0173C19.3687 33.9969 19.3687 33.9765 19.3585 33.956C19.3177 33.8948 19.2922 33.8591 19.2819 33.8489C19.2819 33.8285 19.2768 33.8029 19.2666 33.7723C19.185 33.7315 19.1237 33.6805 19.0829 33.6192C19.0421 33.5478 18.9911 33.4865 18.9298 33.4355C18.8584 33.4151 18.8175 33.3947 18.8073 33.3743C18.7971 33.3538 18.7818 33.3385 18.7614 33.3283C18.6491 33.3079 18.5471 33.2977 18.4552 33.2977C18.3736 33.2875 18.2919 33.2773 18.2102 33.2671C18.1286 33.2569 18.0469 33.2467 17.9653 33.2365C17.8836 33.2263 17.802 33.2263 17.7203 33.2365C17.6183 33.2569 17.5468 33.2671 17.506 33.2671C17.4754 33.2569 17.4498 33.2518 17.4294 33.2518C17.2967 33.3028 17.1896 33.3283 17.1079 33.3283C17.0263 33.3283 16.9446 33.3385 16.863 33.3589C16.8426 33.4304 16.8374 33.5018 16.8477 33.5733C16.8681 33.6447 16.8783 33.7213 16.8783 33.8029C16.8885 33.8438 16.8885 33.8795 16.8783 33.9101C16.8783 33.9407 16.8783 33.9765 16.8783 34.0173C16.8783 34.0683 16.8834 34.1193 16.8936 34.1704C16.914 34.2214 16.9242 34.2724 16.9242 34.3235C16.9242 34.3745 16.9191 34.4255 16.9089 34.4766C16.8987 34.5276 16.8936 34.5786 16.8936 34.6297C16.8834 34.6909 16.8834 34.7573 16.8936 34.8287C16.9038 34.9002 16.9089 34.9512 16.9089 34.9818C16.8987 35.0941 16.8987 35.1757 16.9089 35.2268C16.9293 35.2676 16.9497 35.3135 16.9701 35.3646C16.9191 35.4972 16.914 35.635 16.9548 35.7779C16.9957 35.9106 17.0365 36.0331 17.0773 36.1454C17.1283 36.1352 17.1794 36.1198 17.2304 36.0994C17.2916 36.079 17.3478 36.0637 17.3988 36.0535C17.4805 36.0331 17.557 36.028 17.6285 36.0382C17.7101 36.0484 17.7918 36.0433 17.8734 36.0229C17.9347 36.0025 17.9959 35.977 18.0571 35.9463C18.1286 35.9157 18.2051 35.9106 18.2868 35.931C18.4093 35.8392 18.5624 35.7932 18.7461 35.7932C18.7665 35.7422 18.8073 35.7065 18.8686 35.6861C18.9298 35.6657 18.986 35.6452 19.037 35.6248C19.0574 35.5942 19.0778 35.5687 19.0982 35.5483C19.1288 35.5177 19.1544 35.487 19.1748 35.4564C19.2156 35.3952 19.2462 35.3595 19.2666 35.3492C19.2973 35.3288 19.3177 35.3084 19.3279 35.288C19.3483 35.2574 19.3534 35.2217 19.3432 35.1808C19.3432 35.1298 19.3687 35.089 19.4197 35.0584C19.3993 34.9869 19.3942 34.9206 19.4044 34.8593C19.4248 34.7879 19.4452 34.7215 19.4657 34.6603ZM20.5374 39.3911C20.4965 39.34 20.4608 39.2788 20.4302 39.2074C20.4098 39.1359 20.3894 39.0594 20.369 38.9777C20.3485 38.9369 20.323 38.9114 20.2924 38.9012C20.272 38.891 20.2516 38.8705 20.2312 38.8399C20.1903 38.7583 20.1495 38.7021 20.1087 38.6715C20.0679 38.6409 20.0372 38.6154 20.0168 38.595C19.9658 38.5439 19.925 38.5082 19.8943 38.4878C19.8637 38.4674 19.8229 38.4419 19.7719 38.4112C19.6902 38.3602 19.6137 38.3194 19.5422 38.2888C19.4708 38.2479 19.4044 38.202 19.3432 38.151C19.1697 38.1101 18.9962 38.0795 18.8226 38.0591C18.6593 38.0387 18.5011 38.0183 18.348 37.9979C18.1439 37.9877 17.9653 38.0081 17.8122 38.0591C17.6591 38.0999 17.4703 38.1152 17.2457 38.105C17.2253 38.1459 17.1947 38.1765 17.1539 38.1969C17.1232 38.2071 17.0977 38.2326 17.0773 38.2735C17.0875 38.5899 17.0722 38.9063 17.0314 39.2227C16.9905 39.5391 16.9854 39.8351 17.0161 40.1107C16.9957 40.2638 16.9905 40.4015 17.0008 40.524C17.0212 40.6363 17.0263 40.7179 17.0161 40.769C17.0059 40.8506 17.011 40.9221 17.0314 40.9833C17.0518 41.0344 17.062 41.0854 17.062 41.1364C17.062 41.1568 17.0569 41.1823 17.0467 41.213C17.0365 41.2436 17.0314 41.2742 17.0314 41.3048C17.0314 41.3457 17.0263 41.3814 17.0161 41.412C17.0161 41.4324 17.0263 41.463 17.0467 41.5039C17.159 41.5039 17.2661 41.4885 17.3682 41.4579C17.4805 41.4171 17.5978 41.3865 17.7203 41.3661C17.802 41.3457 17.8836 41.3303 17.9653 41.3201C18.0469 41.3099 18.1286 41.2997 18.2102 41.2895C18.2613 41.2793 18.297 41.2691 18.3174 41.2589C18.348 41.2487 18.3736 41.2436 18.394 41.2436C18.4246 41.2334 18.4552 41.2283 18.4858 41.2283C18.5164 41.2283 18.5471 41.2232 18.5777 41.213C18.7818 41.1721 18.9706 41.1313 19.1442 41.0905C19.3279 41.0395 19.5065 40.968 19.68 40.8761C19.7208 40.8659 19.7566 40.8608 19.7872 40.8608C19.828 40.8506 19.8739 40.8404 19.925 40.8302C19.976 40.7792 20.027 40.723 20.0781 40.6618C20.1393 40.5904 20.2107 40.5342 20.2924 40.4934C20.3128 40.4628 20.323 40.4271 20.323 40.3862C20.323 40.3454 20.3485 40.3199 20.3996 40.3097C20.4098 40.2586 20.42 40.2178 20.4302 40.1872C20.4506 40.1566 20.471 40.126 20.4914 40.0953C20.5221 39.9524 20.5272 39.8198 20.5067 39.6973C20.4965 39.5748 20.5067 39.4727 20.5374 39.3911ZM32.9844 35.1808C32.9844 35.2319 32.9742 35.2931 32.9538 35.3646C32.9333 35.4258 32.9231 35.487 32.9231 35.5483C32.9231 35.5993 32.9231 35.6554 32.9231 35.7167C32.9333 35.7779 32.9384 35.8341 32.9384 35.8851C32.9384 35.977 32.9282 36.079 32.9078 36.1913C32.8874 36.3036 32.8721 36.426 32.8619 36.5587C32.8517 36.6608 32.8466 36.7578 32.8466 36.8496C32.8568 36.9313 32.8415 37.0231 32.8007 37.1252C32.8211 37.2069 32.8262 37.3038 32.816 37.4161C32.816 37.5284 32.8109 37.656 32.8007 37.7988C32.8007 37.8397 32.8058 37.8805 32.816 37.9213C32.8262 37.9519 32.8313 37.9877 32.8313 38.0285C32.8109 38.0897 32.8058 38.1357 32.816 38.1663C32.8262 38.1867 32.8262 38.2071 32.816 38.2275C32.816 38.2888 32.8058 38.3449 32.7853 38.3959C32.7649 38.4368 32.7496 38.4827 32.7394 38.5337C32.7292 38.5745 32.7241 38.6154 32.7241 38.6562C32.7343 38.697 32.7394 38.7379 32.7394 38.7787C32.7292 38.8195 32.719 38.8603 32.7088 38.9012C32.6986 38.942 32.6884 38.9879 32.6782 39.039C32.6578 39.1614 32.6425 39.2941 32.6322 39.437C32.622 39.5799 32.6016 39.7177 32.571 39.8504C32.52 39.9524 32.4894 40.0392 32.4791 40.1107C32.4689 40.1821 32.4536 40.2535 32.4332 40.325C32.4128 40.3862 32.3924 40.4424 32.372 40.4934C32.3618 40.5444 32.3465 40.6057 32.326 40.6771C32.3056 40.7282 32.2801 40.8149 32.2495 40.9374C32.2189 41.0497 32.1934 41.1466 32.1729 41.2283C32.1627 41.2589 32.1525 41.2895 32.1423 41.3201C32.1321 41.3508 32.1168 41.3865 32.0964 41.4273C32.076 41.4783 32.0556 41.5243 32.0352 41.5651C32.025 41.6059 32.0096 41.6468 31.9892 41.6876C31.9484 41.7488 31.928 41.7896 31.928 41.8101C31.928 41.8305 31.9229 41.8458 31.9127 41.856C31.8616 41.907 31.831 41.9376 31.8208 41.9478C31.8106 41.9478 31.8004 41.9581 31.7902 41.9785C31.7494 42.0295 31.7085 42.0907 31.6677 42.1622C31.6371 42.2234 31.5963 42.2898 31.5452 42.3612C31.4738 42.4327 31.433 42.4888 31.4228 42.5296C31.3819 42.5807 31.3309 42.6419 31.2697 42.7133C31.2084 42.7746 31.1472 42.8307 31.0859 42.8818C31.0553 42.9226 31.0145 42.9583 30.9635 42.9889C30.9226 43.0093 30.8818 43.0349 30.841 43.0655C30.7593 43.1471 30.6981 43.2084 30.6573 43.2492C30.6164 43.3002 30.5756 43.336 30.5348 43.3564C30.4327 43.4176 30.3153 43.4431 30.1826 43.4329C30.101 43.535 29.9836 43.6013 29.8305 43.6319C29.6876 43.6626 29.5396 43.6932 29.3865 43.7238C29.3151 43.6932 29.2589 43.6422 29.2181 43.5707C29.1671 43.5809 29.1314 43.5962 29.111 43.6166C29.0905 43.6473 29.0548 43.6626 29.0038 43.6626C28.9527 43.6626 28.9068 43.6524 28.866 43.6319C28.8354 43.6217 28.7996 43.6166 28.7588 43.6166C28.6976 43.6473 28.6312 43.6575 28.5598 43.6473C28.4883 43.6473 28.3965 43.637 28.2842 43.6166C28.2332 43.6166 28.1821 43.6166 28.1311 43.6166C28.0903 43.6166 28.0495 43.6064 28.0086 43.586C27.7637 43.4839 27.5851 43.4431 27.4728 43.4635C27.4422 43.4125 27.3962 43.3819 27.335 43.3717C27.284 43.3615 27.2329 43.3411 27.1819 43.3104C27.1104 43.2492 27.0543 43.2084 27.0135 43.188C26.9727 43.1675 26.9573 43.142 26.9676 43.1114C26.8961 43.0604 26.84 43.0298 26.7991 43.0195C26.7685 43.0093 26.7634 42.9787 26.7838 42.9277C26.7328 42.9277 26.6971 42.9277 26.6767 42.9277C26.6665 42.9175 26.6358 42.8971 26.5848 42.8664C26.5542 42.846 26.5287 42.8205 26.5083 42.7899C26.498 42.7593 26.4674 42.7491 26.4164 42.7593C26.396 42.7185 26.3654 42.6929 26.3245 42.6827C26.2939 42.6725 26.2786 42.6419 26.2786 42.5909C26.2276 42.5909 26.1867 42.5756 26.1561 42.5449C26.1357 42.5143 26.1051 42.4939 26.0643 42.4837C26.0234 42.402 25.9622 42.3306 25.8805 42.2694C25.8091 42.2081 25.7325 42.1469 25.6509 42.0856C25.6203 42.0652 25.5846 42.0448 25.5437 42.0244C25.5131 41.9938 25.4876 41.9632 25.4672 41.9325C25.4366 41.9019 25.4059 41.8611 25.3753 41.8101C25.3549 41.759 25.3294 41.708 25.2988 41.657C25.2273 41.5753 25.1865 41.5243 25.1763 41.5039C25.1661 41.4732 25.1508 41.4477 25.1304 41.4273C25.0487 41.3763 25.0028 41.3406 24.9926 41.3201C24.9824 41.2997 24.9722 41.2844 24.9619 41.2742C24.9415 41.2436 24.9109 41.2028 24.8701 41.1517C24.8395 41.0905 24.8242 41.0292 24.8242 40.968C24.8037 40.9374 24.7833 40.9119 24.7629 40.8915C24.7425 40.8608 24.7221 40.8302 24.7017 40.7996C24.7221 40.7486 24.717 40.7077 24.6864 40.6771C24.666 40.6465 24.6506 40.6057 24.6404 40.5546C24.62 40.473 24.6098 40.3862 24.6098 40.2944C24.6098 40.1923 24.5996 40.1004 24.5792 40.0188C24.5486 39.9167 24.5078 39.8351 24.4567 39.7738C24.4669 39.6616 24.4567 39.5901 24.4261 39.5595C24.4057 39.5289 24.3853 39.5034 24.3649 39.4829C24.3751 39.3298 24.3495 39.2125 24.2883 39.1308C24.3291 39.0185 24.324 38.9114 24.273 38.8093C24.222 38.7072 24.2118 38.6052 24.2424 38.5031C24.2628 38.4623 24.2679 38.4266 24.2577 38.3959C24.2577 38.3653 24.2577 38.3194 24.2577 38.2581C24.2475 38.1765 24.2577 38.0693 24.2883 37.9366C24.2985 37.906 24.2883 37.8754 24.2577 37.8448C24.2373 37.8039 24.222 37.7631 24.2118 37.7223C24.2016 37.6713 24.2067 37.6049 24.2271 37.5233C24.2577 37.4314 24.273 37.3498 24.273 37.2783C24.273 37.2375 24.2679 37.2018 24.2577 37.1711C24.2475 37.1405 24.2475 37.1099 24.2577 37.0793C24.2577 37.0384 24.2679 37.0078 24.2883 36.9874C24.3087 36.9568 24.324 36.9262 24.3342 36.8956C24.3138 36.7833 24.3036 36.6812 24.3036 36.5894C24.3138 36.4873 24.3087 36.3801 24.2883 36.2678C24.3598 36.176 24.3853 36.1198 24.3649 36.0994C24.3547 36.0688 24.3495 36.0331 24.3495 35.9923C24.421 35.8698 24.472 35.7422 24.5026 35.6095C24.5026 35.5687 24.4975 35.533 24.4873 35.5023C24.4873 35.4615 24.4924 35.4258 24.5026 35.3952C24.5333 35.2829 24.5435 35.2064 24.5333 35.1655C24.5333 35.1145 24.5435 35.0635 24.5639 35.0124C24.5843 34.9104 24.6149 34.844 24.6557 34.8134C24.6353 34.742 24.6149 34.6654 24.5945 34.5837C24.5843 34.4919 24.5996 34.4051 24.6404 34.3235C24.6915 34.2929 24.7476 34.2775 24.8088 34.2775C24.8803 34.2673 24.9415 34.2469 24.9926 34.2163C25.013 34.2367 25.0487 34.2469 25.0997 34.2469C25.1508 34.2367 25.1763 34.252 25.1763 34.2929C25.2886 34.2724 25.3651 34.2571 25.4059 34.2469C25.4468 34.2265 25.4876 34.2163 25.5284 34.2163C25.6407 34.2163 25.7479 34.2214 25.8499 34.2316C25.952 34.2316 26.049 34.2265 26.1408 34.2163C26.2021 34.3286 26.2378 34.4153 26.248 34.4766C26.2684 34.5378 26.2837 34.6195 26.2939 34.7215C26.3143 34.8848 26.3194 35.0584 26.3092 35.2421C26.3092 35.4258 26.3041 35.6146 26.2939 35.8085C26.2939 35.8494 26.299 35.8902 26.3092 35.931C26.3194 35.9616 26.3245 35.9974 26.3245 36.0382C26.3143 36.0994 26.3041 36.1607 26.2939 36.2219C26.2939 36.2832 26.2939 36.3495 26.2939 36.4209C26.2735 36.5026 26.2633 36.5689 26.2633 36.62C26.2939 36.7629 26.3092 36.8905 26.3092 37.0027C26.3194 37.115 26.3245 37.1915 26.3245 37.2324C26.3041 37.314 26.3041 37.3957 26.3245 37.4773C26.3552 37.5488 26.3501 37.6253 26.3092 37.707C26.3909 37.8193 26.4317 37.9519 26.4317 38.105C26.4317 38.2581 26.4368 38.4214 26.447 38.595C26.4572 38.6664 26.4725 38.7379 26.4929 38.8093C26.5134 38.8705 26.5236 38.9471 26.5236 39.039C26.5032 39.1206 26.498 39.1818 26.5083 39.2227C26.5287 39.2635 26.5389 39.2992 26.5389 39.3298C26.5389 39.4421 26.5338 39.5544 26.5236 39.6667C26.5134 39.7789 26.5236 39.8861 26.5542 39.9882C26.5644 40.029 26.5746 40.0698 26.5848 40.1107C26.6052 40.1515 26.6256 40.1923 26.646 40.2331C26.6665 40.2842 26.6818 40.3352 26.692 40.3862C26.7022 40.4373 26.7175 40.473 26.7379 40.4934C26.7583 40.524 26.7787 40.5495 26.7991 40.57C26.8196 40.5904 26.84 40.6108 26.8604 40.6312C26.942 40.7333 27.0033 40.8098 27.0441 40.8608C27.0951 40.9119 27.1513 40.9476 27.2125 40.968C27.2125 41.0088 27.2176 41.0446 27.2278 41.0752C27.2482 41.0956 27.2635 41.1211 27.2738 41.1517C27.3146 41.1517 27.3503 41.1568 27.3809 41.167C27.4217 41.1772 27.4677 41.1875 27.5187 41.1977C27.5391 41.2385 27.5697 41.2691 27.6106 41.2895C27.6514 41.3099 27.682 41.3406 27.7024 41.3814C27.8045 41.3814 27.8862 41.412 27.9474 41.4732C28.0086 41.4528 28.0699 41.4579 28.1311 41.4885C28.1924 41.5192 28.2689 41.5345 28.3608 41.5345C28.3914 41.5345 28.4322 41.5294 28.4832 41.5192C28.5343 41.4988 28.5751 41.4885 28.6057 41.4885C28.769 41.4681 28.9221 41.4477 29.065 41.4273C29.2079 41.4069 29.3202 41.3712 29.4018 41.3201C29.4427 41.2691 29.4733 41.2385 29.4937 41.2283C29.5243 41.2079 29.5498 41.1875 29.5703 41.167C29.6315 41.0854 29.6825 41.0139 29.7234 40.9527C29.7744 40.8915 29.8203 40.8353 29.8611 40.7843C29.902 40.7537 29.9479 40.6975 29.9989 40.6159C30.0193 40.5751 30.0398 40.5342 30.0602 40.4934C30.0908 40.4424 30.1265 40.4015 30.1673 40.3709C30.1775 40.2586 30.198 40.1719 30.2286 40.1107C30.2694 40.0392 30.3153 39.9678 30.3664 39.8963C30.3664 39.8351 30.3664 39.7789 30.3664 39.7279C30.3766 39.6769 30.4021 39.636 30.4429 39.6054C30.4225 39.5646 30.4225 39.5289 30.4429 39.4983C30.4633 39.4676 30.4684 39.4217 30.4582 39.3605C30.4684 39.3298 30.4837 39.3043 30.5042 39.2839C30.5246 39.2635 30.545 39.2329 30.5654 39.1921C30.5756 39.1716 30.5756 39.1461 30.5654 39.1155C30.5654 39.0747 30.5807 39.0441 30.6113 39.0236C30.5603 38.9114 30.5399 38.7787 30.5501 38.6256C30.5705 38.4725 30.596 38.3245 30.6266 38.1816C30.6368 38.1306 30.6522 38.0897 30.6726 38.0591C30.693 38.0183 30.7032 37.9775 30.7032 37.9366C30.7032 37.8244 30.7083 37.7478 30.7185 37.707C30.7287 37.656 30.7389 37.61 30.7491 37.5692C30.7491 37.5182 30.744 37.4722 30.7338 37.4314C30.7236 37.3906 30.7185 37.3446 30.7185 37.2936C30.7185 37.263 30.7236 37.2324 30.7338 37.2018C30.744 37.1609 30.7491 37.1201 30.7491 37.0793C30.7491 37.018 30.744 36.9619 30.7338 36.9109C30.7236 36.8598 30.7134 36.8088 30.7032 36.7578C30.7032 36.7169 30.7083 36.6812 30.7185 36.6506C30.7287 36.6098 30.7338 36.5638 30.7338 36.5128C30.744 36.4618 30.744 36.4107 30.7338 36.3597C30.7236 36.2985 30.7185 36.2372 30.7185 36.176C30.7185 36.1352 30.7236 36.0994 30.7338 36.0688C30.744 36.028 30.7491 35.9821 30.7491 35.931C30.7491 35.9004 30.744 35.8698 30.7338 35.8392C30.7338 35.7983 30.7338 35.7626 30.7338 35.732C30.7338 35.681 30.744 35.6299 30.7644 35.5789C30.7848 35.5279 30.7848 35.4768 30.7644 35.4258C30.7236 35.3748 30.7083 35.339 30.7185 35.3186C30.7287 35.2982 30.7287 35.2778 30.7185 35.2574C30.6981 35.2166 30.6828 35.1808 30.6726 35.1502C30.6624 35.1196 30.6522 35.0941 30.6419 35.0737C30.6317 35.043 30.6266 35.0226 30.6266 35.0124C30.6368 34.9308 30.6368 34.8746 30.6266 34.844C30.6164 34.8032 30.6113 34.7675 30.6113 34.7368C30.6113 34.645 30.6164 34.5889 30.6266 34.5684C30.6368 34.5378 30.6471 34.5123 30.6573 34.4919C30.6981 34.4306 30.7542 34.3898 30.8257 34.3694C30.8971 34.3388 30.9737 34.3184 31.0553 34.3082C31.137 34.298 31.2237 34.2929 31.3156 34.2929C31.4074 34.2929 31.4942 34.2878 31.5759 34.2775C31.6881 34.2469 31.7647 34.2367 31.8055 34.2469C31.8565 34.2469 31.8974 34.2418 31.928 34.2316C31.9892 34.2214 32.0505 34.2061 32.1117 34.1857C32.1832 34.1653 32.2597 34.1857 32.3414 34.2469C32.423 34.1857 32.5098 34.1602 32.6016 34.1704C32.7037 34.1704 32.7802 34.2061 32.8313 34.2775C32.8619 34.3184 32.8772 34.3541 32.8772 34.3847C32.8874 34.4153 32.9027 34.4664 32.9231 34.5378C32.9333 34.5889 32.9384 34.6297 32.9384 34.6603C32.9487 34.6807 32.9487 34.7266 32.9384 34.7981C32.9282 34.8491 32.9333 34.9104 32.9538 34.9818C32.9742 35.0533 32.9844 35.1196 32.9844 35.1808ZM40.1494 36.4516C40.0882 36.523 40.0474 36.5587 40.027 36.5587C40.0168 36.5587 40.0015 36.5689 39.981 36.5894C39.8586 36.6608 39.7922 36.6914 39.782 36.6812C39.7004 36.671 39.6442 36.6302 39.6136 36.5587C39.583 36.4873 39.5268 36.4312 39.4452 36.3903C39.3942 36.4107 39.3431 36.4158 39.2921 36.4056C39.2411 36.3954 39.19 36.3954 39.139 36.4056C39.088 36.4158 39.042 36.4312 39.0012 36.4516C38.9604 36.472 38.9144 36.4924 38.8634 36.5128C38.7205 36.5638 38.6236 36.6047 38.5725 36.6353C38.5215 36.6557 38.4705 36.6812 38.4194 36.7118C38.3786 36.7527 38.348 36.7935 38.3276 36.8343C38.3071 36.8649 38.2714 36.9058 38.2204 36.9568C38.1592 37.0078 38.0877 37.0589 38.0061 37.1099C37.9346 37.1507 37.8734 37.1967 37.8223 37.2477C37.8019 37.2783 37.7866 37.3191 37.7764 37.3702C37.7662 37.411 37.7458 37.4518 37.7152 37.4926C37.6437 37.5539 37.6029 37.5947 37.5927 37.6151C37.5825 37.6355 37.5723 37.6508 37.5621 37.6611C37.5314 37.7121 37.5161 37.7529 37.5161 37.7835C37.5263 37.8142 37.5263 37.8397 37.5161 37.8601C37.5059 37.8805 37.4855 37.9162 37.4549 37.9673C37.4243 38.0081 37.4192 38.0591 37.4396 38.1204C37.3783 38.202 37.3477 38.2632 37.3477 38.3041C37.3477 38.3347 37.3426 38.3602 37.3324 38.3806C37.2814 38.4317 37.2508 38.4776 37.2406 38.5184C37.2406 38.549 37.2303 38.5797 37.2099 38.6103C37.1589 38.7021 37.1334 38.7736 37.1334 38.8246C37.1436 38.8654 37.1436 38.9063 37.1334 38.9471C37.1028 39.0594 37.0875 39.1461 37.0875 39.2074C37.0875 39.2584 37.0823 39.3094 37.0721 39.3605C37.0619 39.4319 37.0466 39.5034 37.0262 39.5748C37.0058 39.636 36.9854 39.7075 36.965 39.7891C36.9548 39.8402 36.9548 39.8963 36.965 39.9576C36.9752 40.0086 36.9701 40.0698 36.9497 40.1413C36.9497 40.1719 36.9395 40.2025 36.919 40.2331C36.9088 40.2638 36.9037 40.3046 36.9037 40.3556C36.8935 40.4373 36.8986 40.5138 36.919 40.5853C36.9395 40.6567 36.9139 40.723 36.8425 40.7843C36.8731 40.8455 36.8884 40.9374 36.8884 41.0599C36.8986 41.1721 36.8782 41.2538 36.8272 41.3048C36.868 41.4171 36.8833 41.5396 36.8731 41.6723C36.8731 41.805 36.868 41.9427 36.8578 42.0856C36.8476 42.2183 36.8374 42.3561 36.8272 42.499C36.8272 42.6317 36.8425 42.7593 36.8731 42.8818C36.8935 42.9532 36.9395 42.994 37.0109 43.0042C37.0823 43.0042 37.1436 43.0247 37.1946 43.0655C37.1946 43.0961 37.2048 43.1267 37.2252 43.1573C37.2559 43.1778 37.2814 43.2135 37.3018 43.2645C37.312 43.336 37.2916 43.4074 37.2406 43.4788C37.1895 43.5503 37.1385 43.5962 37.0875 43.6166C37.0466 43.637 37.0058 43.637 36.965 43.6166C36.9241 43.6064 36.8629 43.6115 36.7813 43.6319C36.7404 43.6422 36.6945 43.6575 36.6435 43.6779C36.5924 43.7085 36.5414 43.734 36.4904 43.7544C36.4087 43.785 36.3117 43.8106 36.1995 43.831C36.0872 43.8616 35.9749 43.8871 35.8627 43.9075C35.8116 43.9177 35.7606 43.9228 35.7096 43.9228C35.6585 43.933 35.6075 43.9432 35.5565 43.9535C35.4952 43.9739 35.434 43.9943 35.3727 44.0147C35.3115 44.0453 35.2554 44.0555 35.2043 44.0453C35.1023 44.0249 35.0308 43.9688 34.99 43.8769C34.9492 43.785 34.9287 43.683 34.9287 43.5707C34.9287 43.5197 34.9338 43.4686 34.9441 43.4176C34.9645 43.3768 34.9696 43.3308 34.9594 43.2798C34.9594 43.2288 34.9492 43.1829 34.9287 43.142C34.9185 43.091 34.9083 43.04 34.8981 42.9889C34.8777 42.8562 34.8726 42.7236 34.8828 42.5909C34.893 42.448 34.8981 42.3051 34.8981 42.1622C34.8981 42.1214 34.9032 42.0856 34.9134 42.055C34.9236 42.0142 34.9287 41.9785 34.9287 41.9478C34.9185 41.907 34.9083 41.8713 34.8981 41.8407C34.8879 41.7999 34.8828 41.759 34.8828 41.7182C34.8624 41.6365 34.8471 41.5651 34.8369 41.5039C34.8267 41.4426 34.8165 41.3661 34.8063 41.2742C34.8063 41.2436 34.8012 41.2079 34.791 41.167C34.791 41.1262 34.791 41.0905 34.791 41.0599C34.791 40.9884 34.7961 40.9272 34.8063 40.8761C34.8267 40.8149 34.842 40.7537 34.8522 40.6924C34.8318 40.5802 34.8267 40.4781 34.8369 40.3862C34.8573 40.2944 34.8675 40.2127 34.8675 40.1413C34.8573 40.08 34.842 40.0188 34.8216 39.9576C34.8114 39.8963 34.8012 39.8351 34.791 39.7738C34.791 39.7432 34.791 39.7075 34.791 39.6667C34.8012 39.6156 34.8063 39.585 34.8063 39.5748C34.7756 39.4421 34.7552 39.3349 34.745 39.2533C34.745 39.1716 34.7399 39.1053 34.7297 39.0543C34.7195 38.942 34.7195 38.8654 34.7297 38.8246C34.7501 38.7736 34.7654 38.7225 34.7756 38.6715C34.7961 38.5694 34.7961 38.4674 34.7756 38.3653C34.7654 38.253 34.7654 38.1459 34.7756 38.0438C34.7859 37.9621 34.8012 37.8856 34.8216 37.8142C34.8522 37.7427 34.8675 37.6662 34.8675 37.5845C34.8675 37.5539 34.8624 37.5233 34.8522 37.4926C34.8522 37.4518 34.8522 37.4161 34.8522 37.3855C34.8522 37.3549 34.8573 37.3242 34.8675 37.2936C34.8777 37.2528 34.8828 37.2171 34.8828 37.1864C34.8726 37.166 34.8624 37.1405 34.8522 37.1099C34.842 37.0691 34.8369 37.0333 34.8369 37.0027C34.8165 36.9313 34.8165 36.8649 34.8369 36.8037C34.8573 36.7322 34.8675 36.6557 34.8675 36.574C34.8675 36.523 34.8624 36.472 34.8522 36.4209C34.842 36.3699 34.8318 36.3189 34.8216 36.2678C34.8216 36.2474 34.8216 36.2219 34.8216 36.1913C34.8318 36.1505 34.8318 36.1198 34.8216 36.0994C34.8012 35.9974 34.7961 35.9157 34.8063 35.8545C34.8267 35.783 34.8369 35.7167 34.8369 35.6554C34.8369 35.5738 34.8318 35.4972 34.8216 35.4258C34.8114 35.3543 34.8267 35.2778 34.8675 35.1961C34.8675 35.1451 34.8522 35.1043 34.8216 35.0737C34.791 35.0328 34.7654 34.992 34.745 34.9512C34.7859 34.8695 34.791 34.7879 34.7603 34.7062C34.7399 34.6246 34.7399 34.5429 34.7603 34.4613C34.842 34.3796 34.9236 34.3439 35.0053 34.3541C35.0869 34.3541 35.1431 34.3796 35.1737 34.4306C35.2043 34.4715 35.24 34.5072 35.2809 34.5378C35.3931 34.5684 35.4952 34.5786 35.5871 34.5684C35.6789 34.548 35.781 34.5378 35.8933 34.5378C35.9545 34.5378 36.0107 34.5429 36.0617 34.5531C36.1229 34.5633 36.1791 34.5684 36.2301 34.5684C36.3117 34.5582 36.3832 34.5378 36.4444 34.5072C36.5159 34.4664 36.6128 34.4664 36.7353 34.5072C36.7761 34.5276 36.7966 34.5582 36.7966 34.5991C36.8068 34.6297 36.8272 34.6705 36.8578 34.7215C36.868 34.8032 36.8782 34.8542 36.8884 34.8746C36.8986 34.8848 36.9037 34.9002 36.9037 34.9206C36.8833 35.0124 36.8629 35.0992 36.8425 35.1808C36.8221 35.2625 36.8272 35.3543 36.8578 35.4564C36.919 35.4564 36.965 35.4411 36.9956 35.4105C37.0364 35.3697 37.0772 35.3288 37.1181 35.288C37.1385 35.2676 37.1589 35.2472 37.1793 35.2268C37.2099 35.1961 37.2354 35.1706 37.2559 35.1502C37.3375 35.0788 37.3937 35.0226 37.4243 34.9818C37.4651 34.941 37.5008 34.9104 37.5314 34.8899C37.5621 34.8593 37.5978 34.8338 37.6386 34.8134C37.6794 34.793 37.7101 34.7624 37.7305 34.7215C37.8223 34.7011 37.9142 34.6654 38.0061 34.6144C38.0979 34.5531 38.2 34.5429 38.3123 34.5837C38.3633 34.5327 38.4398 34.4919 38.5419 34.4613C38.6542 34.4204 38.7409 34.4306 38.8022 34.4919C38.9961 34.4919 39.1645 34.4613 39.3074 34.4C39.4503 34.3388 39.583 34.3235 39.7055 34.3541C39.7565 34.3643 39.7922 34.3847 39.8126 34.4153C39.8432 34.4358 39.879 34.4562 39.9198 34.4766C39.9504 34.4868 39.981 34.497 40.0117 34.5072C40.0525 34.5174 40.0882 34.5327 40.1188 34.5531C40.1903 34.6654 40.2107 34.7879 40.1801 34.9206C40.1597 35.043 40.1443 35.1706 40.1341 35.3033C40.1443 35.4258 40.1443 35.5177 40.1341 35.5789C40.1239 35.6401 40.1188 35.6963 40.1188 35.7473C40.1188 35.8596 40.1239 35.977 40.1341 36.0994C40.1443 36.2117 40.1494 36.3291 40.1494 36.4516ZM50.5909 34.5684C50.6113 34.6807 50.6215 34.793 50.6215 34.9053C50.6215 35.0073 50.6062 35.1196 50.5755 35.2421C50.5551 35.3441 50.5449 35.4156 50.5449 35.4564C50.5449 35.487 50.5347 35.5177 50.5143 35.5483C50.4837 35.681 50.4684 35.7983 50.4684 35.9004C50.4786 35.9923 50.4735 36.0739 50.4531 36.1454C50.4531 36.3189 50.4378 36.4414 50.4071 36.5128C50.3867 36.6047 50.3612 36.6965 50.3306 36.7884C50.3102 36.8802 50.2744 36.9823 50.2234 37.0946C50.254 37.2273 50.254 37.3804 50.2234 37.5539C50.2132 37.5947 50.1979 37.6355 50.1775 37.6764C50.1673 37.7172 50.1571 37.758 50.1469 37.7988C50.1367 37.8193 50.1316 37.8448 50.1316 37.8754C50.1418 37.906 50.1418 37.9366 50.1316 37.9673C50.1111 38.0591 50.1009 38.1306 50.1009 38.1816C50.1009 38.2224 50.1009 38.2581 50.1009 38.2888C50.0907 38.4623 50.0754 38.595 50.055 38.6868C50.0448 38.7787 50.0295 38.8654 50.0091 38.9471C49.9887 39.1206 49.9529 39.2788 49.9019 39.4217C49.9121 39.4625 49.9223 39.4983 49.9325 39.5289C49.9529 39.5595 49.9682 39.5901 49.9785 39.6207C49.9785 39.7228 49.9682 39.784 49.9478 39.8045C49.9785 39.8555 49.9989 39.8963 50.0091 39.9269C50.0193 39.9576 50.0193 40.0086 50.0091 40.08C50.0091 40.1617 49.9989 40.2331 49.9785 40.2944C49.9682 40.3556 49.9631 40.4117 49.9631 40.4628C49.9631 40.5036 49.9682 40.5444 49.9785 40.5853C49.9989 40.6159 50.0142 40.6516 50.0244 40.6924C50.0448 40.7741 50.0499 40.8608 50.0397 40.9527C50.0397 41.0446 50.0244 41.1262 49.9938 41.1977C50.0244 41.3201 50.0397 41.4885 50.0397 41.7029C50.0499 41.907 50.0448 42.0958 50.0244 42.2694C49.9938 42.3612 49.9785 42.448 49.9785 42.5296C49.9887 42.6113 49.9887 42.6878 49.9785 42.7593C49.9785 42.8001 49.9734 42.8358 49.9631 42.8664C49.9631 42.8971 49.958 42.9328 49.9478 42.9736C49.9478 43.0144 49.9529 43.0553 49.9631 43.0961C49.9734 43.1267 49.9785 43.1624 49.9785 43.2033C49.958 43.2849 49.9223 43.3717 49.8713 43.4635C49.8611 43.5146 49.8458 43.5605 49.8254 43.6013C49.8049 43.6422 49.7896 43.683 49.7794 43.7238C49.759 43.785 49.7488 43.8514 49.7488 43.9228C49.7488 44.0045 49.7386 44.081 49.7182 44.1525C49.6978 44.1729 49.6774 44.1984 49.6569 44.229C49.6467 44.2699 49.6263 44.2954 49.5957 44.3056C49.5957 44.377 49.5855 44.4536 49.5651 44.5352C49.5038 44.5863 49.4426 44.6424 49.3814 44.7036C49.3303 44.7649 49.2589 44.8108 49.167 44.8414C49.167 44.8925 49.1466 44.9282 49.1058 44.9486C49.065 44.969 49.0343 44.9945 49.0139 45.0252C48.9935 45.0456 48.9782 45.0711 48.968 45.1017C48.968 45.1323 48.9578 45.1578 48.9374 45.1783C48.8966 45.1885 48.871 45.214 48.8608 45.2548C48.8506 45.2956 48.8353 45.3263 48.8149 45.3467C48.621 45.4487 48.4321 45.5406 48.2484 45.6222C48.0749 45.7141 47.9116 45.8264 47.7585 45.9591C47.7075 45.9489 47.6309 45.9642 47.5289 46.005C47.4778 46.0152 47.4268 46.0203 47.3758 46.0203C47.3349 46.0305 47.2839 46.0458 47.2227 46.0662C47.1308 46.0866 47.0594 46.102 47.0083 46.1122C46.9573 46.1326 46.9216 46.1479 46.9011 46.1581C46.8501 46.1785 46.794 46.1887 46.7327 46.1887C46.6715 46.1887 46.6052 46.1887 46.5337 46.1887C46.4827 46.1887 46.4265 46.1887 46.3653 46.1887C46.3143 46.1989 46.2632 46.204 46.2122 46.204C46.1816 46.204 46.151 46.1938 46.1203 46.1734C46.0897 46.1632 46.0642 46.1581 46.0438 46.1581C45.8703 46.1989 45.7274 46.2193 45.6151 46.2193C45.5028 46.2193 45.3855 46.2244 45.263 46.2346C45.2324 46.2346 45.1966 46.2397 45.1558 46.25C45.1252 46.2704 45.0946 46.2806 45.064 46.2806C45.0435 46.2806 45.0129 46.2755 44.9721 46.2653C44.9415 46.2551 44.916 46.25 44.8955 46.25H44.6965C44.6557 46.2397 44.62 46.2295 44.5893 46.2193C44.5587 46.2091 44.5332 46.1989 44.5128 46.1887C44.4618 46.1887 44.4107 46.1938 44.3597 46.204C44.3087 46.2142 44.2576 46.2193 44.2066 46.2193C44.1249 46.1989 44.0484 46.1887 43.9769 46.1887C43.9463 46.1683 43.9106 46.1581 43.8698 46.1581C43.8289 46.1581 43.7983 46.153 43.7779 46.1428C43.7575 46.1326 43.7218 46.1122 43.6707 46.0815C43.6299 46.0509 43.5942 46.0254 43.5636 46.005C43.5227 45.9948 43.4819 45.9897 43.4411 45.9897C43.4105 45.9999 43.3696 45.9948 43.3186 45.9744C43.237 45.954 43.1757 45.9335 43.1349 45.9131C43.0941 45.8927 43.0328 45.8621 42.9512 45.8213C42.8899 45.7907 42.8338 45.76 42.7828 45.7294C42.7419 45.6988 42.6909 45.6631 42.6297 45.6222C42.6093 45.6018 42.5888 45.5763 42.5684 45.5457C42.548 45.5253 42.5276 45.5049 42.5072 45.4845C42.4459 45.4334 42.4 45.3977 42.3694 45.3773C42.349 45.3569 42.3286 45.3416 42.3082 45.3314C42.2571 45.2701 42.2214 45.2344 42.201 45.2242C42.1908 45.2242 42.1806 45.214 42.1704 45.1936C42.1397 45.1629 42.104 45.1272 42.0632 45.0864C42.0326 45.0456 42.0071 44.9996 41.9866 44.9486C41.9356 44.8363 41.8897 44.7649 41.8489 44.7343C41.8182 44.7036 41.7927 44.6679 41.7723 44.6271C41.6907 44.4128 41.6447 44.1933 41.6345 43.9688C41.6243 43.7544 41.609 43.5452 41.5886 43.3411C41.6498 43.2594 41.7264 43.2135 41.8182 43.2033C41.9203 43.1931 42.0275 43.1778 42.1397 43.1573C42.1908 43.1369 42.2367 43.1165 42.2775 43.0961C42.3286 43.0655 42.3796 43.0604 42.4306 43.0808C42.4613 43.0604 42.497 43.0451 42.5378 43.0349C42.5786 43.0247 42.6195 43.0093 42.6603 42.9889C42.7113 42.9787 42.7572 42.9685 42.7981 42.9583C42.8389 42.9481 42.8797 42.943 42.9206 42.943C42.9818 42.9532 43.0277 42.9736 43.0583 43.0042C43.089 43.0349 43.1247 43.0757 43.1655 43.1267C43.2165 43.2084 43.2574 43.2696 43.288 43.3104C43.3186 43.3513 43.3543 43.3972 43.3952 43.4482C43.4564 43.5299 43.4972 43.586 43.5176 43.6166C43.5483 43.6473 43.5789 43.6728 43.6095 43.6932C43.6912 43.7544 43.7524 43.7953 43.7932 43.8157C43.8443 43.8463 43.8902 43.8718 43.931 43.8922C43.9923 43.933 44.028 43.9535 44.0382 43.9535C44.0586 43.9637 44.0841 43.979 44.1147 43.9994C44.176 44.0504 44.2423 44.1015 44.3138 44.1525C44.3954 44.2137 44.4924 44.2443 44.6047 44.2443C44.6455 44.2954 44.6863 44.3311 44.7271 44.3515C44.7782 44.3719 44.8292 44.3974 44.8802 44.4281C44.9211 44.4485 44.9568 44.4587 44.9874 44.4587C45.018 44.4689 45.0486 44.4842 45.0793 44.5046C45.1303 44.5556 45.166 44.5863 45.1864 44.5965C45.2068 44.6067 45.2273 44.6169 45.2477 44.6271C45.3089 44.6679 45.3957 44.7036 45.5079 44.7343C45.6304 44.7751 45.7478 44.7853 45.8601 44.7649C45.9723 44.7445 46.054 44.7394 46.105 44.7496C46.1561 44.7598 46.1918 44.7598 46.2122 44.7496C46.2836 44.7496 46.3551 44.7394 46.4265 44.719C46.5082 44.6985 46.5847 44.6781 46.6562 44.6577C46.6868 44.6475 46.7174 44.6373 46.748 44.6271C46.7889 44.6169 46.8246 44.5965 46.8552 44.5659C46.9267 44.5454 46.9675 44.525 46.9777 44.5046C46.9879 44.4842 46.9981 44.474 47.0083 44.474C47.1512 44.4025 47.2533 44.3311 47.3145 44.2597C47.386 44.1984 47.4574 44.1474 47.5289 44.1066C47.5493 44.0249 47.585 43.9535 47.636 43.8922C47.6871 43.8412 47.733 43.7799 47.7738 43.7085C47.8044 43.6473 47.83 43.6064 47.8504 43.586C47.8606 43.5758 47.8708 43.5707 47.881 43.5707C47.8912 43.5095 47.9065 43.4686 47.9269 43.4482C47.9575 43.438 47.9831 43.4227 48.0035 43.4023C48.0341 43.3411 48.0698 43.2288 48.1106 43.0655C48.1311 43.0451 48.1515 43.0195 48.1719 42.9889C48.1923 42.9583 48.2127 42.9277 48.2331 42.8971C48.2127 42.8256 48.2127 42.7389 48.2331 42.6368C48.2637 42.5347 48.2995 42.4582 48.3403 42.4071C48.3199 42.3867 48.3097 42.3612 48.3097 42.3306C48.3199 42.2898 48.325 42.2438 48.325 42.1928C48.2637 42.1724 48.2127 42.1928 48.1719 42.254C48.1311 42.3051 48.0902 42.3459 48.0494 42.3765C47.9984 42.4071 47.9473 42.4429 47.8963 42.4837C47.8555 42.5143 47.8095 42.5398 47.7585 42.5602C47.6769 42.5909 47.6105 42.6215 47.5595 42.6521C47.5187 42.6827 47.4727 42.7082 47.4217 42.7287C47.4013 42.7491 47.3758 42.7644 47.3451 42.7746C47.3145 42.7746 47.2788 42.7848 47.238 42.8052C47.1971 42.8256 47.1512 42.8511 47.1002 42.8818C47.0594 42.9124 47.0134 42.9379 46.9624 42.9583C46.9114 42.9787 46.8603 42.994 46.8093 43.0042C46.7583 43.0042 46.7021 43.0144 46.6409 43.0349C46.5796 43.0451 46.5184 43.0553 46.4572 43.0655C46.3959 43.0757 46.3194 43.0859 46.2275 43.0961C46.1867 43.0961 46.1459 43.0961 46.105 43.0961C46.0744 43.0859 46.0336 43.0808 45.9826 43.0808C45.8601 43.091 45.7529 43.0961 45.661 43.0961C45.5692 43.0961 45.4824 43.0553 45.4008 42.9736C45.3395 42.9634 45.3089 42.9838 45.3089 43.0349C45.3191 43.0757 45.2885 43.0859 45.2171 43.0655C45.0435 43.0655 44.8853 43.0451 44.7424 43.0042C44.6098 42.9634 44.4822 42.9175 44.3597 42.8664C44.2882 42.8358 44.2219 42.8103 44.1607 42.7899C44.1198 42.7695 44.079 42.7593 44.0382 42.7593C43.9974 42.7593 43.9616 42.7491 43.931 42.7287C43.8902 42.698 43.8392 42.6725 43.7779 42.6521C43.7167 42.6317 43.6963 42.5909 43.7167 42.5296C43.635 42.4888 43.5687 42.4684 43.5176 42.4684C43.4768 42.4582 43.436 42.4429 43.3952 42.4225C43.3237 42.3714 43.2676 42.3306 43.2268 42.3C43.1859 42.2694 43.1451 42.2387 43.1043 42.2081L42.9206 42.0244C42.8899 41.9938 42.8593 41.9632 42.8287 41.9325C42.8083 41.8917 42.7726 41.8662 42.7215 41.856C42.7215 41.805 42.7062 41.7692 42.6756 41.7488C42.645 41.7284 42.6297 41.6978 42.6297 41.657C42.5888 41.6161 42.5531 41.5804 42.5225 41.5498C42.4919 41.509 42.4562 41.4681 42.4153 41.4273C42.3847 41.3763 42.3541 41.3457 42.3235 41.3354C42.2928 41.315 42.2673 41.2946 42.2469 41.2742C42.1959 41.2232 42.1448 41.1823 42.0938 41.1517C42.053 41.1211 42.0275 41.0956 42.0173 41.0752C41.9866 40.9731 41.956 40.9119 41.9254 40.8915C41.905 40.8608 41.8897 40.8353 41.8795 40.8149C41.8489 40.7639 41.8182 40.723 41.7876 40.6924C41.7672 40.6516 41.7468 40.6108 41.7264 40.57C41.706 40.5087 41.6907 40.4679 41.6804 40.4475C41.6702 40.4169 41.6549 40.3913 41.6345 40.3709C41.6141 40.3199 41.5835 40.2689 41.5427 40.2178C41.512 40.1566 41.4967 40.0902 41.4967 40.0188C41.4763 39.9984 41.4559 39.978 41.4355 39.9576C41.4151 39.9269 41.3896 39.8912 41.3589 39.8504C41.3181 39.7891 41.2926 39.733 41.2824 39.682C41.2722 39.6207 41.2569 39.5646 41.2365 39.5136C41.2262 39.4727 41.2109 39.437 41.1905 39.4064C41.1803 39.3656 41.165 39.3247 41.1446 39.2839C41.1344 39.2533 41.1293 39.2227 41.1293 39.1921C41.1395 39.1512 41.1395 39.1104 41.1293 39.0696C41.1089 38.9573 41.0936 38.8807 41.0834 38.8399C41.0732 38.7991 41.068 38.7583 41.068 38.7174C41.0476 38.6154 41.0323 38.5643 41.0221 38.5643C41.0221 38.5541 41.0374 38.5235 41.068 38.4725C41.0885 38.4419 41.0987 38.3755 41.0987 38.2735C41.0987 38.1612 41.1089 38.0744 41.1293 38.0132C41.1395 37.9826 41.1548 37.957 41.1752 37.9366C41.1956 37.906 41.216 37.8703 41.2365 37.8295C41.2569 37.7784 41.262 37.7325 41.2518 37.6917C41.2518 37.6406 41.262 37.5998 41.2824 37.5692C41.3334 37.508 41.3589 37.4671 41.3589 37.4467C41.3691 37.4263 41.3845 37.4059 41.4049 37.3855C41.4253 37.3446 41.461 37.2987 41.512 37.2477C41.512 37.1558 41.5222 37.0589 41.5427 36.9568C41.5733 36.8547 41.6141 36.768 41.6651 36.6965V36.5128C41.6958 36.4822 41.7213 36.4465 41.7417 36.4056C41.7621 36.3648 41.7825 36.324 41.8029 36.2832C41.8438 36.2015 41.8846 36.1147 41.9254 36.0229C41.9764 35.9208 42.0326 35.829 42.0938 35.7473C42.1346 35.6759 42.1602 35.6401 42.1704 35.6401C42.1908 35.6299 42.2061 35.6197 42.2163 35.6095C42.2979 35.5381 42.3643 35.4666 42.4153 35.3952C42.4664 35.3237 42.5123 35.2727 42.5531 35.2421C42.5837 35.2217 42.6195 35.2064 42.6603 35.1961C42.7113 35.1757 42.7572 35.1553 42.7981 35.1349C42.8287 35.0941 42.8542 35.0584 42.8746 35.0277C42.9052 34.9869 42.9461 34.9665 42.9971 34.9665C43.0481 34.8746 43.1298 34.7879 43.2421 34.7062C43.2829 34.6756 43.3339 34.6501 43.3952 34.6297C43.4666 34.6093 43.5279 34.5889 43.5789 34.5684C43.6503 34.5276 43.7065 34.5072 43.7473 34.5072C43.7881 34.497 43.8238 34.4868 43.8545 34.4766C43.9769 34.4051 44.0994 34.3592 44.2219 34.3388C44.3444 34.3082 44.4464 34.2622 44.5281 34.201C44.6506 34.2112 44.7629 34.1908 44.8649 34.1398C44.9772 34.0887 45.0895 34.053 45.2017 34.0326C45.2324 34.0326 45.263 34.0377 45.2936 34.0479C45.3242 34.0479 45.3599 34.0479 45.4008 34.0479C45.4722 34.0377 45.5386 34.0326 45.5998 34.0326C45.6712 34.0224 45.7325 34.053 45.7835 34.1244C45.8039 34.0836 45.8346 34.0581 45.8754 34.0479C45.9162 34.0377 45.957 34.0224 45.9979 34.002C46.1101 34.0224 46.2224 34.0326 46.3347 34.0326C46.447 34.0224 46.5541 34.0275 46.6562 34.0479C46.7583 34.0683 46.845 34.0989 46.9165 34.1398C46.9981 34.1806 47.0849 34.201 47.1767 34.201C47.2482 34.252 47.3145 34.2929 47.3758 34.3235C47.4472 34.3541 47.5238 34.3949 47.6054 34.446C47.6769 34.4868 47.733 34.5225 47.7738 34.5531C47.8249 34.5837 47.8861 34.6246 47.9575 34.6756C48.029 34.7471 48.08 34.793 48.1106 34.8134C48.1413 34.8236 48.1668 34.8287 48.1872 34.8287C48.2076 34.9104 48.2433 34.9767 48.2944 35.0277C48.3454 35.0788 48.3964 35.1298 48.4475 35.1808C48.4679 35.14 48.4781 35.089 48.4781 35.0277C48.4883 34.9665 48.5036 34.9104 48.524 34.8593C48.5036 34.8185 48.4832 34.7879 48.4628 34.7675C48.4526 34.7368 48.4526 34.6807 48.4628 34.5991C48.4628 34.4766 48.4883 34.4 48.5393 34.3694C48.5904 34.3388 48.6567 34.3286 48.7383 34.3388C48.82 34.3388 48.9119 34.3592 49.0139 34.4C49.116 34.4306 49.2283 34.4511 49.3507 34.4613C49.4426 34.4715 49.5498 34.4766 49.6723 34.4766C49.7947 34.4766 49.907 34.4715 50.0091 34.4613C50.0601 34.4511 50.106 34.4358 50.1469 34.4153C50.1979 34.3949 50.2438 34.3898 50.2847 34.4C50.3561 34.4204 50.4122 34.4511 50.4531 34.4919C50.5041 34.5327 50.55 34.5582 50.5909 34.5684ZM48.4934 38.9165C48.5036 38.8348 48.5036 38.7736 48.4934 38.7328C48.4934 38.6817 48.4883 38.6256 48.4781 38.5643C48.4679 38.5235 48.4577 38.4878 48.4475 38.4572C48.4373 38.4163 48.4373 38.3704 48.4475 38.3194C48.4066 38.2888 48.3811 38.2428 48.3709 38.1816C48.3709 38.1101 48.3607 38.0591 48.3403 38.0285C48.3097 37.9468 48.2893 37.8907 48.279 37.8601C48.279 37.8295 48.2739 37.8091 48.2637 37.7988C48.2331 37.7478 48.1923 37.7121 48.1413 37.6917C48.1004 37.6713 48.08 37.6253 48.08 37.5539C48.0188 37.5233 47.9575 37.4875 47.8963 37.4467C47.8351 37.4059 47.7942 37.36 47.7738 37.3089C47.6922 37.1864 47.6156 37.0895 47.5442 37.018C47.4727 36.9466 47.4013 36.8853 47.3298 36.8343C47.2482 36.7731 47.1767 36.7322 47.1155 36.7118C47.0542 36.6914 46.9981 36.671 46.9471 36.6506C46.9165 36.62 46.8909 36.5791 46.8705 36.5281C46.8501 36.4771 46.8297 36.4209 46.8093 36.3597C46.7378 36.3495 46.6511 36.3291 46.549 36.2985C46.4572 36.2576 46.3755 36.227 46.3041 36.2066C46.2122 36.1964 46.1459 36.1862 46.105 36.176C46.0642 36.1658 46.0234 36.1556 45.9826 36.1454C45.9315 36.1454 45.8805 36.1505 45.8295 36.1607C45.7784 36.1607 45.7274 36.1556 45.6764 36.1454C45.6253 36.1352 45.5743 36.125 45.5233 36.1147C45.4722 36.1045 45.4212 36.0943 45.3702 36.0841C45.2579 36.1045 45.1558 36.1096 45.064 36.0994C44.9823 36.0892 44.916 36.0892 44.8649 36.0994C44.7935 36.1096 44.722 36.1352 44.6506 36.176C44.5893 36.2168 44.523 36.2372 44.4516 36.2372C44.4311 36.2883 44.4005 36.324 44.3597 36.3444C44.3291 36.3648 44.2933 36.3903 44.2525 36.4209C44.1709 36.472 44.0943 36.5128 44.0229 36.5434C43.9514 36.574 43.8953 36.6302 43.8545 36.7118C43.783 36.7731 43.732 36.8088 43.7014 36.819C43.681 36.8292 43.6656 36.8445 43.6554 36.8649C43.6248 36.9364 43.5942 36.9874 43.5636 37.018C43.533 37.0487 43.5074 37.0742 43.487 37.0946C43.5074 37.1456 43.4921 37.1967 43.4411 37.2477C43.3901 37.2885 43.3543 37.3191 43.3339 37.3395C43.3237 37.4518 43.3084 37.5335 43.288 37.5845C43.237 37.6355 43.2063 37.6815 43.1961 37.7223C43.1859 37.7631 43.1706 37.8039 43.1502 37.8448C43.0788 37.9877 43.043 38.1306 43.043 38.2735C43.0532 38.4163 43.0583 38.5541 43.0583 38.6868C43.0379 38.7685 43.0328 38.8297 43.043 38.8705C43.0532 38.9012 43.0583 38.9267 43.0583 38.9471C43.0481 39.039 43.0379 39.1206 43.0277 39.1921C43.0277 39.2533 43.043 39.3247 43.0737 39.4064C43.0839 39.4268 43.0992 39.4676 43.1196 39.5289C43.14 39.5901 43.1553 39.6207 43.1655 39.6207C43.2063 39.7024 43.2421 39.7585 43.2727 39.7891C43.3033 39.8198 43.3339 39.8606 43.3645 39.9116C43.4054 39.9729 43.436 40.0392 43.4564 40.1107C43.487 40.1719 43.5125 40.2382 43.533 40.3097C43.5738 40.3505 43.6095 40.3913 43.6401 40.4322C43.681 40.473 43.7116 40.524 43.732 40.5853C43.8545 40.6465 43.9412 40.6975 43.9923 40.7384C44.0535 40.7792 44.1096 40.8149 44.1607 40.8455C44.2729 40.9068 44.3597 40.9629 44.4209 41.0139C44.4822 41.0548 44.5383 41.0854 44.5893 41.1058C44.7833 41.1772 44.9619 41.213 45.1252 41.213C45.1558 41.2232 45.1813 41.2232 45.2017 41.213C45.2324 41.2028 45.263 41.1977 45.2936 41.1977C45.559 41.2181 45.758 41.2232 45.8907 41.213C46.0234 41.2028 46.1561 41.1875 46.2888 41.167C46.401 41.1466 46.5031 41.1313 46.5949 41.1211C46.697 41.1007 46.7838 41.0701 46.8552 41.0292C46.9471 40.9578 47.0134 40.9221 47.0542 40.9221C47.0951 40.9119 47.1308 40.8966 47.1614 40.8761C47.2635 40.8251 47.3298 40.7894 47.3604 40.769C47.3911 40.7384 47.4217 40.7128 47.4523 40.6924C47.5135 40.6414 47.5697 40.6006 47.6207 40.57C47.682 40.5393 47.7228 40.4883 47.7432 40.4169C47.7738 40.3964 47.8044 40.3811 47.8351 40.3709C47.8759 40.3505 47.9116 40.3199 47.9422 40.2791C47.9933 40.1974 48.0188 40.1362 48.0188 40.0953C48.0188 40.0545 48.029 40.0188 48.0494 39.9882C48.0698 39.9576 48.0902 39.932 48.1106 39.9116C48.1311 39.881 48.1515 39.8504 48.1719 39.8198C48.1923 39.7891 48.2076 39.7636 48.2178 39.7432C48.228 39.7126 48.2382 39.682 48.2484 39.6514C48.2688 39.5595 48.2944 39.5034 48.325 39.4829C48.3556 39.4523 48.3658 39.4115 48.3556 39.3605C48.376 39.2788 48.3964 39.2074 48.4168 39.1461C48.4475 39.0747 48.473 38.9981 48.4934 38.9165ZM60.5117 39.0543C60.5015 39.1972 60.5015 39.2941 60.5117 39.3452C60.5219 39.3962 60.5117 39.4523 60.4811 39.5136C60.4607 39.5544 60.4199 39.585 60.3586 39.6054C60.3076 39.6258 60.2719 39.6565 60.2515 39.6973C60.1902 39.6769 60.1239 39.6718 60.0524 39.682C59.981 39.682 59.9197 39.6922 59.8687 39.7126C59.7973 39.6514 59.6952 39.6258 59.5625 39.636C59.44 39.6462 59.338 39.6207 59.2563 39.5595C59.1951 39.5901 59.1389 39.6054 59.0879 39.6054C58.945 39.6258 58.7919 39.6207 58.6286 39.5901C58.4755 39.5595 58.3173 39.534 58.154 39.5136C58.0417 39.5034 57.9243 39.4983 57.8019 39.4983C57.6794 39.4983 57.5722 39.4983 57.4803 39.4983C57.3783 39.5187 57.2966 39.5289 57.2354 39.5289C57.1537 39.5187 57.0772 39.4983 57.0057 39.4676C56.9445 39.437 56.8731 39.4217 56.7914 39.4217C56.7302 39.4115 56.6638 39.4166 56.5924 39.437C56.5311 39.4472 56.4699 39.4523 56.4086 39.4523C56.3474 39.4523 56.2658 39.4421 56.1637 39.4217C56.082 39.4319 56.0259 39.437 55.9953 39.437C55.9647 39.4268 55.9391 39.4217 55.9187 39.4217C55.8473 39.4217 55.7758 39.4268 55.7044 39.437C55.6432 39.4472 55.587 39.4217 55.536 39.3605C55.4952 39.3911 55.4594 39.4115 55.4288 39.4217C55.3982 39.4319 55.3421 39.437 55.2604 39.437C55.2094 39.4268 55.1685 39.4217 55.1379 39.4217C55.1175 39.4115 55.0971 39.4064 55.0767 39.4064C55.0052 39.4268 54.944 39.4319 54.893 39.4217C54.8521 39.4115 54.8113 39.4268 54.7705 39.4676C54.7501 39.4472 54.7143 39.4421 54.6633 39.4523C54.6123 39.4523 54.5766 39.4421 54.5561 39.4217C54.4235 39.4013 54.3163 39.4013 54.2346 39.4217C54.153 39.4421 54.0662 39.4523 53.9744 39.4523C53.8927 39.4523 53.8111 39.4421 53.7294 39.4217C53.658 39.4013 53.5661 39.4013 53.4538 39.4217C53.4028 39.5136 53.3824 39.6309 53.3926 39.7738C53.413 39.9065 53.4538 40.0137 53.5151 40.0953C53.5253 40.1464 53.5202 40.1872 53.4998 40.2178C53.4895 40.2484 53.4844 40.2893 53.4844 40.3403C53.5661 40.4526 53.6324 40.5342 53.6835 40.5853C53.7447 40.6363 53.7906 40.6873 53.8213 40.7384C53.8723 40.82 53.9335 40.8966 54.005 40.968C54.0764 41.0395 54.1428 41.1211 54.204 41.213C54.2244 41.264 54.2499 41.3048 54.2806 41.3354C54.3214 41.3661 54.3571 41.4069 54.3877 41.4579C54.4694 41.4783 54.5357 41.509 54.5868 41.5498C54.648 41.5906 54.7194 41.6365 54.8011 41.6876C54.9134 41.7488 54.9899 41.805 55.0308 41.856C55.0818 41.8968 55.143 41.9325 55.2145 41.9632C55.2655 41.9836 55.3063 41.9938 55.337 41.9938C55.3676 41.9836 55.3982 41.9836 55.4288 41.9938C55.4798 42.0142 55.536 42.0499 55.5972 42.1009C55.6585 42.152 55.7248 42.1826 55.7963 42.1928C55.9085 42.1826 55.9902 42.1826 56.0412 42.1928C56.0922 42.1928 56.1382 42.1979 56.179 42.2081C56.3117 42.2183 56.4342 42.1877 56.5464 42.1163C56.5975 42.1163 56.6383 42.1163 56.6689 42.1163C56.6995 42.1163 56.7404 42.1112 56.7914 42.1009C56.8833 42.0397 56.9496 42.0091 56.9904 42.0091C57.0415 42.0091 57.0823 41.9989 57.1129 41.9785C57.1435 41.9478 57.169 41.9325 57.1895 41.9325C57.2201 41.9223 57.2456 41.9121 57.266 41.9019C57.3272 41.8815 57.3783 41.856 57.4191 41.8254C57.4701 41.7947 57.5212 41.759 57.5722 41.7182C57.6437 41.6774 57.71 41.6314 57.7712 41.5804C57.8733 41.5192 57.9601 41.4324 58.0315 41.3201C58.1132 41.2079 58.1999 41.1109 58.2918 41.0292C58.302 40.9068 58.3224 40.8047 58.353 40.723C58.3836 40.6414 58.4245 40.5648 58.4755 40.4934C58.4755 40.3811 58.4857 40.2944 58.5061 40.2331C58.5367 40.1617 58.5725 40.0953 58.6133 40.0341C58.6643 40.0239 58.7102 40.0137 58.7511 40.0035C58.7919 39.9933 58.8429 39.9984 58.9042 40.0188C58.9348 40.0392 58.9603 40.0596 58.9807 40.08C59.0113 40.0902 59.0522 40.1055 59.1032 40.126C59.1338 40.1464 59.1644 40.1617 59.1951 40.1719C59.2359 40.1719 59.292 40.1821 59.3635 40.2025C59.4349 40.2331 59.486 40.2484 59.5166 40.2484C59.5472 40.2484 59.5778 40.2535 59.6084 40.2638C59.6901 40.3046 59.7615 40.3199 59.8228 40.3097C59.8942 40.2995 59.9555 40.3046 60.0065 40.325C60.1188 40.4066 60.1851 40.4679 60.2055 40.5087C60.2055 40.6312 60.1698 40.7435 60.0984 40.8455C60.0473 40.9578 60.0218 41.0292 60.0218 41.0599C60.032 41.0803 60.032 41.116 60.0218 41.167C60.0116 41.1977 59.9963 41.2232 59.9759 41.2436C59.9555 41.264 59.9402 41.2946 59.9299 41.3354C59.9095 41.3967 59.8942 41.4579 59.884 41.5192C59.8738 41.5702 59.8534 41.6263 59.8228 41.6876C59.7411 41.7896 59.6748 41.8662 59.6237 41.9172C59.5829 41.9581 59.537 41.9887 59.486 42.0091C59.5064 42.0601 59.4962 42.1009 59.4553 42.1316C59.4145 42.152 59.3839 42.1724 59.3635 42.1928C59.3329 42.2643 59.2869 42.3204 59.2257 42.3612C59.1747 42.402 59.1134 42.448 59.042 42.499C58.9603 42.5705 58.8736 42.6317 58.7817 42.6827C58.7 42.7338 58.6184 42.7848 58.5367 42.8358C58.4245 42.9277 58.3479 42.994 58.3071 43.0349C58.2663 43.0655 58.2152 43.091 58.154 43.1114C58.103 43.1318 58.0621 43.1522 58.0315 43.1726C58.0111 43.1829 57.9958 43.188 57.9856 43.188C57.9345 43.2084 57.8784 43.2186 57.8172 43.2186C57.7559 43.2186 57.6947 43.2288 57.6334 43.2492C57.5212 43.29 57.4242 43.3155 57.3426 43.3257C57.2609 43.3462 57.1793 43.3666 57.0976 43.387C57.0466 43.4074 57.0006 43.4227 56.9598 43.4329C56.919 43.4431 56.8577 43.4431 56.7761 43.4329C56.674 43.4125 56.5975 43.4176 56.5464 43.4482C56.4954 43.4788 56.4444 43.4737 56.3933 43.4329C56.2811 43.4533 56.1841 43.4737 56.1024 43.4942C56.031 43.5146 55.9647 43.5197 55.9034 43.5095C55.8728 43.5095 55.8422 43.5044 55.8116 43.4942C55.7809 43.4839 55.7503 43.4737 55.7197 43.4635C55.5258 43.4329 55.3676 43.4125 55.2451 43.4023C55.1328 43.3921 55.0308 43.3717 54.9389 43.3411C54.9083 43.3308 54.8777 43.3257 54.847 43.3257C54.8164 43.3257 54.7909 43.3053 54.7705 43.2645C54.6684 43.2849 54.5715 43.2747 54.4796 43.2339C54.3979 43.1829 54.3316 43.1318 54.2806 43.0808C54.2499 43.0808 54.2193 43.0757 54.1887 43.0655C54.1683 43.0553 54.1428 43.0451 54.1122 43.0349C54.0407 43.0042 53.9693 42.9736 53.8978 42.943C53.8264 42.9022 53.7702 42.8409 53.7294 42.7593C53.6477 42.7593 53.5865 42.7389 53.5457 42.698C53.5151 42.6572 53.4742 42.6164 53.4232 42.5756C53.3415 42.5756 53.265 42.5551 53.1936 42.5143C53.1323 42.4633 53.0813 42.4071 53.0405 42.3459C52.9588 42.2438 52.8823 42.1622 52.8108 42.1009C52.6985 41.9887 52.6118 41.8968 52.5505 41.8254C52.4893 41.7437 52.4127 41.6876 52.3209 41.657C52.3005 41.5957 52.2699 41.5447 52.229 41.5039C52.1882 41.463 52.1474 41.4171 52.1065 41.3661C52.0555 41.264 52.0198 41.1977 51.9994 41.167C51.979 41.1364 51.9585 41.1109 51.9381 41.0905C51.9177 41.0088 51.8973 40.9323 51.8769 40.8608C51.8667 40.7792 51.8514 40.6975 51.831 40.6159C51.8003 40.5036 51.785 40.422 51.785 40.3709C51.785 40.3199 51.7799 40.2689 51.7697 40.2178C51.7595 40.1872 51.7442 40.1566 51.7238 40.126C51.7136 40.0953 51.7034 40.0647 51.6932 40.0341C51.683 39.9831 51.6779 39.932 51.6779 39.881C51.6881 39.83 51.6881 39.7738 51.6779 39.7126C51.6677 39.6616 51.6575 39.6156 51.6472 39.5748C51.637 39.5238 51.6319 39.4727 51.6319 39.4217C51.6319 39.3503 51.637 39.2788 51.6472 39.2074C51.6575 39.1257 51.6626 39.0441 51.6626 38.9624C51.6626 38.942 51.6575 38.9165 51.6472 38.8859C51.6472 38.845 51.6472 38.8144 51.6472 38.794C51.6575 38.743 51.6728 38.6919 51.6932 38.6409C51.7238 38.5797 51.7442 38.5235 51.7544 38.4725C51.734 38.3806 51.7289 38.3143 51.7391 38.2735C51.7595 38.2326 51.7595 38.202 51.7391 38.1816C51.7595 38.1612 51.7748 38.1357 51.785 38.105C51.7952 38.0642 51.8054 38.0336 51.8157 38.0132C51.8259 37.9826 51.831 37.9468 51.831 37.906C51.831 37.8652 51.8412 37.8193 51.8616 37.7682C51.9126 37.6866 51.9432 37.6406 51.9534 37.6304C51.9739 37.61 51.9892 37.5947 51.9994 37.5845C52.0096 37.5131 52.0198 37.4671 52.03 37.4467C52.0402 37.4161 52.0555 37.3906 52.0759 37.3702C52.127 37.2681 52.1576 37.2069 52.1678 37.1864C52.1882 37.166 52.2035 37.1456 52.2137 37.1252C52.2239 37.0436 52.2341 36.9976 52.2443 36.9874C52.2545 36.9772 52.2647 36.9619 52.275 36.9415C52.2954 36.8802 52.3056 36.8292 52.3056 36.7884C52.3158 36.7374 52.3311 36.6863 52.3515 36.6353C52.3719 36.5843 52.3974 36.5332 52.4281 36.4822C52.4587 36.4209 52.4995 36.3699 52.5505 36.3291C52.6016 36.2066 52.6475 36.1045 52.6883 36.0229C52.7292 35.931 52.77 35.8443 52.8108 35.7626C52.9027 35.6912 52.9792 35.6095 53.0405 35.5177C53.1119 35.4258 53.1936 35.3441 53.2854 35.2727C53.3058 35.2523 53.3262 35.2421 53.3467 35.2421C53.3773 35.2319 53.413 35.2166 53.4538 35.1961C53.5661 35.1145 53.6477 35.0533 53.6988 35.0124C53.7498 34.9614 53.8111 34.9206 53.8825 34.8899C53.9437 34.8695 54.0356 34.8593 54.1581 34.8593C54.2908 34.8491 54.3826 34.8083 54.4337 34.7368C54.4949 34.7368 54.5561 34.7266 54.6174 34.7062C54.6786 34.6756 54.7399 34.645 54.8011 34.6144C54.8419 34.594 54.8879 34.5735 54.9389 34.5531C54.9899 34.5225 55.0614 34.5123 55.1532 34.5225C55.2247 34.5327 55.291 34.5378 55.3523 34.5378C55.4237 34.5276 55.5003 34.5123 55.5819 34.4919C55.6227 34.4817 55.6687 34.4715 55.7197 34.4613C55.7707 34.4511 55.8269 34.446 55.8881 34.446C56.0412 34.4664 56.1586 34.4766 56.2402 34.4766C56.3321 34.4766 56.4342 34.4817 56.5464 34.4919C56.5975 34.4919 56.6485 34.4868 56.6995 34.4766C56.7608 34.4562 56.822 34.446 56.8833 34.446C56.9343 34.4562 56.9802 34.4613 57.021 34.4613C57.0721 34.4613 57.1231 34.4664 57.1741 34.4766C57.2456 34.497 57.2864 34.5072 57.2966 34.5072C57.317 34.5072 57.3324 34.5072 57.3426 34.5072C57.3936 34.5174 57.4344 34.5378 57.465 34.5684C57.5059 34.5889 57.5518 34.6093 57.6028 34.6297C57.6232 34.6501 57.6488 34.6603 57.6794 34.6603C57.7202 34.6603 57.7508 34.6705 57.7712 34.6909C57.8121 34.7011 57.8733 34.7266 57.955 34.7675C58.0264 34.7879 58.0927 34.8083 58.154 34.8287C58.2152 34.8491 58.2561 34.8951 58.2765 34.9665C58.3887 34.9971 58.4704 35.0379 58.5214 35.089C58.5827 35.14 58.6388 35.1808 58.6898 35.2115C58.7307 35.2421 58.7715 35.288 58.8123 35.3492C58.8531 35.4003 58.8991 35.4411 58.9501 35.4717C58.9603 35.5023 58.9705 35.5279 58.9807 35.5483C59.0011 35.5687 59.0164 35.5993 59.0267 35.6401C59.1083 35.6912 59.1798 35.7575 59.241 35.8392C59.3022 35.9106 59.389 35.9667 59.5013 36.0076C59.5319 36.079 59.5676 36.1403 59.6084 36.1913C59.6493 36.2423 59.6748 36.3138 59.685 36.4056C59.7054 36.4363 59.7258 36.472 59.7462 36.5128C59.7768 36.5434 59.8075 36.5843 59.8381 36.6353C59.8483 36.6557 59.8636 36.6812 59.884 36.7118C59.9146 36.7425 59.935 36.7731 59.9453 36.8037C59.9963 36.916 60.0524 37.0231 60.1137 37.1252C60.1341 37.1558 60.1596 37.1915 60.1902 37.2324C60.231 37.2732 60.2617 37.3191 60.2821 37.3702C60.2923 37.411 60.2974 37.4518 60.2974 37.4926C60.2974 37.5335 60.3025 37.5743 60.3127 37.6151C60.3331 37.6662 60.3484 37.7121 60.3586 37.7529C60.3688 37.7835 60.379 37.8091 60.3892 37.8295C60.4097 37.9111 60.4148 37.9928 60.4046 38.0744C60.3943 38.1459 60.3943 38.2224 60.4046 38.3041C60.4148 38.3653 60.4199 38.4317 60.4199 38.5031C60.4301 38.5643 60.4403 38.6256 60.4505 38.6868C60.4505 38.7685 60.4556 38.8348 60.4658 38.8859L60.5117 39.0543ZM58.3224 37.8295C58.3428 37.8091 58.3428 37.7733 58.3224 37.7223C58.3122 37.6713 58.2867 37.6355 58.2458 37.6151C58.2254 37.5437 58.1948 37.5029 58.154 37.4926C58.1234 37.4722 58.1234 37.4416 58.154 37.4008C58.1234 37.3702 58.0825 37.3446 58.0315 37.3242C57.9805 37.3038 57.9601 37.263 57.9703 37.2018C57.9192 37.212 57.8835 37.2018 57.8631 37.1711C57.8529 37.1303 57.8376 37.1048 57.8172 37.0946C57.7457 37.0436 57.6998 36.9925 57.6794 36.9415C57.659 36.8905 57.6283 36.8496 57.5875 36.819C57.5569 36.7986 57.5212 36.7986 57.4803 36.819C57.4497 36.8292 57.4344 36.8037 57.4344 36.7425C57.2711 36.7527 57.1435 36.7271 57.0517 36.6659C56.97 36.5945 56.8884 36.5179 56.8067 36.4363C56.7148 36.4567 56.6128 36.4618 56.5005 36.4516C56.3882 36.4414 56.2811 36.4414 56.179 36.4516C56.0973 36.4005 56.0208 36.3801 55.9493 36.3903C55.8881 36.3903 55.8116 36.375 55.7197 36.3444C55.6789 36.3342 55.6534 36.3138 55.6432 36.2832C55.6432 36.2423 55.6176 36.2219 55.5666 36.2219C55.4952 36.2525 55.4237 36.2525 55.3523 36.2219C55.291 36.1913 55.2196 36.1709 55.1379 36.1607C55.0563 36.2117 54.9695 36.2474 54.8777 36.2678C54.7858 36.2781 54.6939 36.2985 54.6021 36.3291C54.551 36.3495 54.4949 36.4005 54.4337 36.4822C54.3724 36.5536 54.3265 36.6047 54.2959 36.6353C54.2244 36.7169 54.153 36.7986 54.0815 36.8802C54.0101 36.9619 53.9437 37.0436 53.8825 37.1252C53.8927 37.1864 53.8876 37.2375 53.8672 37.2783C53.8468 37.3089 53.8417 37.3498 53.8519 37.4008C53.7804 37.4518 53.7294 37.5335 53.6988 37.6457C53.6784 37.7478 53.658 37.8499 53.6375 37.9519C53.709 37.9621 53.7906 37.9621 53.8825 37.9519C53.9744 37.9417 54.0713 37.9315 54.1734 37.9213C54.204 37.9111 54.2346 37.906 54.2653 37.906C54.3061 37.906 54.3418 37.906 54.3724 37.906C54.5255 37.8754 54.6582 37.8652 54.7705 37.8754C54.8828 37.8754 54.9848 37.8703 55.0767 37.8601C55.1787 37.8601 55.2757 37.855 55.3676 37.8448C55.4696 37.8244 55.5615 37.8346 55.6432 37.8754C55.7554 37.8244 55.883 37.8039 56.0259 37.8142C56.179 37.8244 56.3015 37.8346 56.3933 37.8448C56.475 37.8448 56.5209 37.8397 56.5311 37.8295C56.5413 37.8193 56.5515 37.8193 56.5617 37.8295C56.8577 37.8091 57.1486 37.8193 57.4344 37.8601C57.7304 37.8907 58.0264 37.8805 58.3224 37.8295ZM67.4471 36.4516C67.3859 36.523 67.3451 36.5587 67.3247 36.5587C67.3145 36.5587 67.2991 36.5689 67.2787 36.5894C67.1563 36.6608 67.0899 36.6914 67.0797 36.6812C66.9981 36.671 66.9419 36.6302 66.9113 36.5587C66.8807 36.4873 66.8245 36.4312 66.7429 36.3903C66.6919 36.4107 66.6408 36.4158 66.5898 36.4056C66.5388 36.3954 66.4877 36.3954 66.4367 36.4056C66.3857 36.4158 66.3397 36.4312 66.2989 36.4516C66.2581 36.472 66.2121 36.4924 66.1611 36.5128C66.0182 36.5638 65.9212 36.6047 65.8702 36.6353C65.8192 36.6557 65.7681 36.6812 65.7171 36.7118C65.6763 36.7527 65.6457 36.7935 65.6253 36.8343C65.6048 36.8649 65.5691 36.9058 65.5181 36.9568C65.4568 37.0078 65.3854 37.0589 65.3037 37.1099C65.2323 37.1507 65.1711 37.1967 65.12 37.2477C65.0996 37.2783 65.0843 37.3191 65.0741 37.3702C65.0639 37.411 65.0435 37.4518 65.0129 37.4926C64.9414 37.5539 64.9006 37.5947 64.8904 37.6151C64.8802 37.6355 64.87 37.6508 64.8598 37.6611C64.8291 37.7121 64.8138 37.7529 64.8138 37.7835C64.824 37.8142 64.824 37.8397 64.8138 37.8601C64.8036 37.8805 64.7832 37.9162 64.7526 37.9673C64.722 38.0081 64.7169 38.0591 64.7373 38.1204C64.676 38.202 64.6454 38.2632 64.6454 38.3041C64.6454 38.3347 64.6403 38.3602 64.6301 38.3806C64.5791 38.4317 64.5485 38.4776 64.5382 38.5184C64.5382 38.549 64.528 38.5797 64.5076 38.6103C64.4566 38.7021 64.4311 38.7736 64.4311 38.8246C64.4413 38.8654 64.4413 38.9063 64.4311 38.9471C64.4005 39.0594 64.3851 39.1461 64.3851 39.2074C64.3851 39.2584 64.38 39.3094 64.3698 39.3605C64.3596 39.4319 64.3443 39.5034 64.3239 39.5748C64.3035 39.636 64.2831 39.7075 64.2627 39.7891C64.2525 39.8402 64.2525 39.8963 64.2627 39.9576C64.2729 40.0086 64.2678 40.0698 64.2474 40.1413C64.2474 40.1719 64.2372 40.2025 64.2167 40.2331C64.2065 40.2638 64.2014 40.3046 64.2014 40.3556C64.1912 40.4373 64.1963 40.5138 64.2167 40.5853C64.2372 40.6567 64.2116 40.723 64.1402 40.7843C64.1708 40.8455 64.1861 40.9374 64.1861 41.0599C64.1963 41.1721 64.1759 41.2538 64.1249 41.3048C64.1657 41.4171 64.181 41.5396 64.1708 41.6723C64.1708 41.805 64.1657 41.9427 64.1555 42.0856C64.1453 42.2183 64.1351 42.3561 64.1249 42.499C64.1249 42.6317 64.1402 42.7593 64.1708 42.8818C64.1912 42.9532 64.2372 42.994 64.3086 43.0042C64.38 43.0042 64.4413 43.0247 64.4923 43.0655C64.4923 43.0961 64.5025 43.1267 64.5229 43.1573C64.5536 43.1778 64.5791 43.2135 64.5995 43.2645C64.6097 43.336 64.5893 43.4074 64.5382 43.4788C64.4872 43.5503 64.4362 43.5962 64.3851 43.6166C64.3443 43.637 64.3035 43.637 64.2627 43.6166C64.2218 43.6064 64.1606 43.6115 64.0789 43.6319C64.0381 43.6422 63.9922 43.6575 63.9412 43.6779C63.8901 43.7085 63.8391 43.734 63.7881 43.7544C63.7064 43.785 63.6094 43.8106 63.4972 43.831C63.3849 43.8616 63.2726 43.8871 63.1603 43.9075C63.1093 43.9177 63.0583 43.9228 63.0072 43.9228C62.9562 43.933 62.9052 43.9432 62.8541 43.9535C62.7929 43.9739 62.7317 43.9943 62.6704 44.0147C62.6092 44.0453 62.5531 44.0555 62.502 44.0453C62.4 44.0249 62.3285 43.9688 62.2877 43.8769C62.2469 43.785 62.2264 43.683 62.2264 43.5707C62.2264 43.5197 62.2315 43.4686 62.2418 43.4176C62.2622 43.3768 62.2673 43.3308 62.2571 43.2798C62.2571 43.2288 62.2469 43.1829 62.2264 43.142C62.2162 43.091 62.206 43.04 62.1958 42.9889C62.1754 42.8562 62.1703 42.7236 62.1805 42.5909C62.1907 42.448 62.1958 42.3051 62.1958 42.1622C62.1958 42.1214 62.2009 42.0856 62.2111 42.055C62.2213 42.0142 62.2264 41.9785 62.2264 41.9478C62.2162 41.907 62.206 41.8713 62.1958 41.8407C62.1856 41.7999 62.1805 41.759 62.1805 41.7182C62.1601 41.6365 62.1448 41.5651 62.1346 41.5039C62.1244 41.4426 62.1142 41.3661 62.104 41.2742C62.104 41.2436 62.0989 41.2079 62.0887 41.167C62.0887 41.1262 62.0887 41.0905 62.0887 41.0599C62.0887 40.9884 62.0938 40.9272 62.104 40.8761C62.1244 40.8149 62.1397 40.7537 62.1499 40.6924C62.1295 40.5802 62.1244 40.4781 62.1346 40.3862C62.155 40.2944 62.1652 40.2127 62.1652 40.1413C62.155 40.08 62.1397 40.0188 62.1193 39.9576C62.1091 39.8963 62.0989 39.8351 62.0887 39.7738C62.0887 39.7432 62.0887 39.7075 62.0887 39.6667C62.0989 39.6156 62.104 39.585 62.104 39.5748C62.0733 39.4421 62.0529 39.3349 62.0427 39.2533C62.0427 39.1716 62.0376 39.1053 62.0274 39.0543C62.0172 38.942 62.0172 38.8654 62.0274 38.8246C62.0478 38.7736 62.0631 38.7225 62.0733 38.6715C62.0938 38.5694 62.0938 38.4674 62.0733 38.3653C62.0631 38.253 62.0631 38.1459 62.0733 38.0438C62.0835 37.9621 62.0989 37.8856 62.1193 37.8142C62.1499 37.7427 62.1652 37.6662 62.1652 37.5845C62.1652 37.5539 62.1601 37.5233 62.1499 37.4926C62.1499 37.4518 62.1499 37.4161 62.1499 37.3855C62.1499 37.3549 62.155 37.3242 62.1652 37.2936C62.1754 37.2528 62.1805 37.2171 62.1805 37.1864C62.1703 37.166 62.1601 37.1405 62.1499 37.1099C62.1397 37.0691 62.1346 37.0333 62.1346 37.0027C62.1142 36.9313 62.1142 36.8649 62.1346 36.8037C62.155 36.7322 62.1652 36.6557 62.1652 36.574C62.1652 36.523 62.1601 36.472 62.1499 36.4209C62.1397 36.3699 62.1295 36.3189 62.1193 36.2678C62.1193 36.2474 62.1193 36.2219 62.1193 36.1913C62.1295 36.1505 62.1295 36.1198 62.1193 36.0994C62.0989 35.9974 62.0938 35.9157 62.104 35.8545C62.1244 35.783 62.1346 35.7167 62.1346 35.6554C62.1346 35.5738 62.1295 35.4972 62.1193 35.4258C62.1091 35.3543 62.1244 35.2778 62.1652 35.1961C62.1652 35.1451 62.1499 35.1043 62.1193 35.0737C62.0887 35.0328 62.0631 34.992 62.0427 34.9512C62.0835 34.8695 62.0887 34.7879 62.058 34.7062C62.0376 34.6246 62.0376 34.5429 62.058 34.4613C62.1397 34.3796 62.2213 34.3439 62.303 34.3541C62.3846 34.3541 62.4408 34.3796 62.4714 34.4306C62.502 34.4715 62.5377 34.5072 62.5786 34.5378C62.6908 34.5684 62.7929 34.5786 62.8848 34.5684C62.9766 34.548 63.0787 34.5378 63.191 34.5378C63.2522 34.5378 63.3083 34.5429 63.3594 34.5531C63.4206 34.5633 63.4768 34.5684 63.5278 34.5684C63.6094 34.5582 63.6809 34.5378 63.7421 34.5072C63.8136 34.4664 63.9105 34.4664 64.033 34.5072C64.0738 34.5276 64.0943 34.5582 64.0943 34.5991C64.1045 34.6297 64.1249 34.6705 64.1555 34.7215C64.1657 34.8032 64.1759 34.8542 64.1861 34.8746C64.1963 34.8848 64.2014 34.9002 64.2014 34.9206C64.181 35.0124 64.1606 35.0992 64.1402 35.1808C64.1198 35.2625 64.1249 35.3543 64.1555 35.4564C64.2167 35.4564 64.2627 35.4411 64.2933 35.4105C64.3341 35.3697 64.3749 35.3288 64.4158 35.288C64.4362 35.2676 64.4566 35.2472 64.477 35.2268C64.5076 35.1961 64.5331 35.1706 64.5536 35.1502C64.6352 35.0788 64.6913 35.0226 64.722 34.9818C64.7628 34.941 64.7985 34.9104 64.8291 34.8899C64.8598 34.8593 64.8955 34.8338 64.9363 34.8134C64.9771 34.793 65.0078 34.7624 65.0282 34.7215C65.12 34.7011 65.2119 34.6654 65.3037 34.6144C65.3956 34.5531 65.4977 34.5429 65.6099 34.5837C65.661 34.5327 65.7375 34.4919 65.8396 34.4613C65.9519 34.4204 66.0386 34.4306 66.0999 34.4919C66.2938 34.4919 66.4622 34.4613 66.6051 34.4C66.748 34.3388 66.8807 34.3235 67.0032 34.3541C67.0542 34.3643 67.0899 34.3847 67.1103 34.4153C67.1409 34.4358 67.1767 34.4562 67.2175 34.4766C67.2481 34.4868 67.2787 34.497 67.3094 34.5072C67.3502 34.5174 67.3859 34.5327 67.4165 34.5531C67.488 34.6654 67.5084 34.7879 67.4778 34.9206C67.4574 35.043 67.442 35.1706 67.4318 35.3033C67.442 35.4258 67.442 35.5177 67.4318 35.5789C67.4216 35.6401 67.4165 35.6963 67.4165 35.7473C67.4165 35.8596 67.4216 35.977 67.4318 36.0994C67.442 36.2117 67.4471 36.3291 67.4471 36.4516Z" fill="#F0E5E5"/>
<rect x="1.30645" y="1.30645" width="78.3871" height="53.5645" stroke="#F0E5E5" stroke-width="2.6129"/>
</svg>
