<svg width="1440" height="36" viewBox="0 0 1440 36" fill="none" xmlns="http://www.w3.org/2000/svg">
<path d="M0 3L4.5 0L9 3L4.5 6L0 3Z" fill="#F7F3F3"/>
<path d="M13 13L17.5 10L22 13L17.5 16L13 13Z" fill="#F7F3F3"/>
<path d="M13 3L17.5 0L22 3L17.5 6L13 3Z" fill="#EEEEEE"/>
<path d="M0 13L4.5 10L9 13L4.5 16L0 13Z" fill="#EEEEEE"/>
<path d="M0 23L4.5 20L9 23L4.5 26L0 23Z" fill="#F7F3F3"/>
<path d="M13 33L17.5 30L22 33L17.5 36L13 33Z" fill="#F7F3F3"/>
<path d="M13 23L17.5 20L22 23L17.5 26L13 23Z" fill="#EEEEEE"/>
<path d="M0 33L4.5 30L9 33L4.5 36L0 33Z" fill="#EEEEEE"/>
<path d="M26 3L30.5 0L35 3L30.5 6L26 3Z" fill="#F7F3F3"/>
<path d="M39 13L43.5 10L48 13L43.5 16L39 13Z" fill="#F7F3F3"/>
<path d="M39 3L43.5 0L48 3L43.5 6L39 3Z" fill="#EEEEEE"/>
<path d="M26 13L30.5 10L35 13L30.5 16L26 13Z" fill="#EEEEEE"/>
<path d="M26 23L30.5 20L35 23L30.5 26L26 23Z" fill="#F7F3F3"/>
<path d="M39 33L43.5 30L48 33L43.5 36L39 33Z" fill="#F7F3F3"/>
<path d="M39 23L43.5 20L48 23L43.5 26L39 23Z" fill="#EEEEEE"/>
<path d="M26 33L30.5 30L35 33L30.5 36L26 33Z" fill="#EEEEEE"/>
<path d="M52 3L56.5 0L61 3L56.5 6L52 3Z" fill="#F7F3F3"/>
<path d="M65 13L69.5 10L74 13L69.5 16L65 13Z" fill="#F7F3F3"/>
<path d="M65 3L69.5 0L74 3L69.5 6L65 3Z" fill="#EEEEEE"/>
<path d="M52 13L56.5 10L61 13L56.5 16L52 13Z" fill="#EEEEEE"/>
<path d="M52 23L56.5 20L61 23L56.5 26L52 23Z" fill="#F7F3F3"/>
<path d="M65 33L69.5 30L74 33L69.5 36L65 33Z" fill="#F7F3F3"/>
<path d="M65 23L69.5 20L74 23L69.5 26L65 23Z" fill="#EEEEEE"/>
<path d="M52 33L56.5 30L61 33L56.5 36L52 33Z" fill="#EEEEEE"/>
<path d="M78 3L82.5 0L87 3L82.5 6L78 3Z" fill="#F7F3F3"/>
<path d="M91 13L95.5 10L100 13L95.5 16L91 13Z" fill="#F7F3F3"/>
<path d="M91 3L95.5 0L100 3L95.5 6L91 3Z" fill="#EEEEEE"/>
<path d="M78 13L82.5 10L87 13L82.5 16L78 13Z" fill="#EEEEEE"/>
<path d="M78 23L82.5 20L87 23L82.5 26L78 23Z" fill="#F7F3F3"/>
<path d="M91 33L95.5 30L100 33L95.5 36L91 33Z" fill="#F7F3F3"/>
<path d="M91 23L95.5 20L100 23L95.5 26L91 23Z" fill="#EEEEEE"/>
<path d="M78 33L82.5 30L87 33L82.5 36L78 33Z" fill="#EEEEEE"/>
<path d="M104 3L108.5 0L113 3L108.5 6L104 3Z" fill="#F7F3F3"/>
<path d="M117 13L121.5 10L126 13L121.5 16L117 13Z" fill="#F7F3F3"/>
<path d="M117 3L121.5 0L126 3L121.5 6L117 3Z" fill="#EEEEEE"/>
<path d="M104 13L108.5 10L113 13L108.5 16L104 13Z" fill="#EEEEEE"/>
<path d="M104 23L108.5 20L113 23L108.5 26L104 23Z" fill="#F7F3F3"/>
<path d="M117 33L121.5 30L126 33L121.5 36L117 33Z" fill="#F7F3F3"/>
<path d="M117 23L121.5 20L126 23L121.5 26L117 23Z" fill="#EEEEEE"/>
<path d="M104 33L108.5 30L113 33L108.5 36L104 33Z" fill="#EEEEEE"/>
<path d="M130 3L134.5 0L139 3L134.5 6L130 3Z" fill="#F7F3F3"/>
<path d="M143 13L147.5 10L152 13L147.5 16L143 13Z" fill="#F7F3F3"/>
<path d="M143 3L147.5 0L152 3L147.5 6L143 3Z" fill="#EEEEEE"/>
<path d="M130 13L134.5 10L139 13L134.5 16L130 13Z" fill="#EEEEEE"/>
<path d="M130 23L134.5 20L139 23L134.5 26L130 23Z" fill="#F7F3F3"/>
<path d="M143 33L147.5 30L152 33L147.5 36L143 33Z" fill="#F7F3F3"/>
<path d="M143 23L147.5 20L152 23L147.5 26L143 23Z" fill="#EEEEEE"/>
<path d="M130 33L134.5 30L139 33L134.5 36L130 33Z" fill="#EEEEEE"/>
<path d="M156 3L160.5 0L165 3L160.5 6L156 3Z" fill="#F7F3F3"/>
<path d="M169 13L173.5 10L178 13L173.5 16L169 13Z" fill="#F7F3F3"/>
<path d="M169 3L173.5 0L178 3L173.5 6L169 3Z" fill="#EEEEEE"/>
<path d="M156 13L160.5 10L165 13L160.5 16L156 13Z" fill="#EEEEEE"/>
<path d="M156 23L160.5 20L165 23L160.5 26L156 23Z" fill="#F7F3F3"/>
<path d="M169 33L173.5 30L178 33L173.5 36L169 33Z" fill="#F7F3F3"/>
<path d="M169 23L173.5 20L178 23L173.5 26L169 23Z" fill="#EEEEEE"/>
<path d="M156 33L160.5 30L165 33L160.5 36L156 33Z" fill="#EEEEEE"/>
<path d="M182 3L186.5 0L191 3L186.5 6L182 3Z" fill="#F7F3F3"/>
<path d="M195 13L199.5 10L204 13L199.5 16L195 13Z" fill="#F7F3F3"/>
<path d="M195 3L199.5 0L204 3L199.5 6L195 3Z" fill="#EEEEEE"/>
<path d="M182 13L186.5 10L191 13L186.5 16L182 13Z" fill="#EEEEEE"/>
<path d="M182 23L186.5 20L191 23L186.5 26L182 23Z" fill="#F7F3F3"/>
<path d="M195 33L199.5 30L204 33L199.5 36L195 33Z" fill="#F7F3F3"/>
<path d="M195 23L199.5 20L204 23L199.5 26L195 23Z" fill="#EEEEEE"/>
<path d="M182 33L186.5 30L191 33L186.5 36L182 33Z" fill="#EEEEEE"/>
<path d="M208 3L212.5 0L217 3L212.5 6L208 3Z" fill="#F7F3F3"/>
<path d="M221 13L225.5 10L230 13L225.5 16L221 13Z" fill="#F7F3F3"/>
<path d="M221 3L225.5 0L230 3L225.5 6L221 3Z" fill="#EEEEEE"/>
<path d="M208 13L212.5 10L217 13L212.5 16L208 13Z" fill="#EEEEEE"/>
<path d="M208 23L212.5 20L217 23L212.5 26L208 23Z" fill="#F7F3F3"/>
<path d="M221 33L225.5 30L230 33L225.5 36L221 33Z" fill="#F7F3F3"/>
<path d="M221 23L225.5 20L230 23L225.5 26L221 23Z" fill="#EEEEEE"/>
<path d="M208 33L212.5 30L217 33L212.5 36L208 33Z" fill="#EEEEEE"/>
<path d="M234 3L238.5 0L243 3L238.5 6L234 3Z" fill="#F7F3F3"/>
<path d="M247 13L251.5 10L256 13L251.5 16L247 13Z" fill="#F7F3F3"/>
<path d="M247 3L251.5 0L256 3L251.5 6L247 3Z" fill="#EEEEEE"/>
<path d="M234 13L238.5 10L243 13L238.5 16L234 13Z" fill="#EEEEEE"/>
<path d="M234 23L238.5 20L243 23L238.5 26L234 23Z" fill="#F7F3F3"/>
<path d="M247 33L251.5 30L256 33L251.5 36L247 33Z" fill="#F7F3F3"/>
<path d="M247 23L251.5 20L256 23L251.5 26L247 23Z" fill="#EEEEEE"/>
<path d="M234 33L238.5 30L243 33L238.5 36L234 33Z" fill="#EEEEEE"/>
<path d="M260 3L264.5 0L269 3L264.5 6L260 3Z" fill="#F7F3F3"/>
<path d="M273 13L277.5 10L282 13L277.5 16L273 13Z" fill="#F7F3F3"/>
<path d="M273 3L277.5 0L282 3L277.5 6L273 3Z" fill="#EEEEEE"/>
<path d="M260 13L264.5 10L269 13L264.5 16L260 13Z" fill="#EEEEEE"/>
<path d="M260 23L264.5 20L269 23L264.5 26L260 23Z" fill="#F7F3F3"/>
<path d="M273 33L277.5 30L282 33L277.5 36L273 33Z" fill="#F7F3F3"/>
<path d="M273 23L277.5 20L282 23L277.5 26L273 23Z" fill="#EEEEEE"/>
<path d="M260 33L264.5 30L269 33L264.5 36L260 33Z" fill="#EEEEEE"/>
<path d="M286 3L290.5 0L295 3L290.5 6L286 3Z" fill="#F7F3F3"/>
<path d="M299 13L303.5 10L308 13L303.5 16L299 13Z" fill="#F7F3F3"/>
<path d="M299 3L303.5 0L308 3L303.5 6L299 3Z" fill="#EEEEEE"/>
<path d="M286 13L290.5 10L295 13L290.5 16L286 13Z" fill="#EEEEEE"/>
<path d="M286 23L290.5 20L295 23L290.5 26L286 23Z" fill="#F7F3F3"/>
<path d="M299 33L303.5 30L308 33L303.5 36L299 33Z" fill="#F7F3F3"/>
<path d="M299 23L303.5 20L308 23L303.5 26L299 23Z" fill="#EEEEEE"/>
<path d="M286 33L290.5 30L295 33L290.5 36L286 33Z" fill="#EEEEEE"/>
<path d="M312 3L316.5 0L321 3L316.5 6L312 3Z" fill="#F7F3F3"/>
<path d="M325 13L329.5 10L334 13L329.5 16L325 13Z" fill="#F7F3F3"/>
<path d="M325 3L329.5 0L334 3L329.5 6L325 3Z" fill="#EEEEEE"/>
<path d="M312 13L316.5 10L321 13L316.5 16L312 13Z" fill="#EEEEEE"/>
<path d="M312 23L316.5 20L321 23L316.5 26L312 23Z" fill="#F7F3F3"/>
<path d="M325 33L329.5 30L334 33L329.5 36L325 33Z" fill="#F7F3F3"/>
<path d="M325 23L329.5 20L334 23L329.5 26L325 23Z" fill="#EEEEEE"/>
<path d="M312 33L316.5 30L321 33L316.5 36L312 33Z" fill="#EEEEEE"/>
<path d="M338 3L342.5 0L347 3L342.5 6L338 3Z" fill="#F7F3F3"/>
<path d="M351 13L355.5 10L360 13L355.5 16L351 13Z" fill="#F7F3F3"/>
<path d="M351 3L355.5 0L360 3L355.5 6L351 3Z" fill="#EEEEEE"/>
<path d="M338 13L342.5 10L347 13L342.5 16L338 13Z" fill="#EEEEEE"/>
<path d="M338 23L342.5 20L347 23L342.5 26L338 23Z" fill="#F7F3F3"/>
<path d="M351 33L355.5 30L360 33L355.5 36L351 33Z" fill="#F7F3F3"/>
<path d="M351 23L355.5 20L360 23L355.5 26L351 23Z" fill="#EEEEEE"/>
<path d="M338 33L342.5 30L347 33L342.5 36L338 33Z" fill="#EEEEEE"/>
<path d="M364 3L368.5 0L373 3L368.5 6L364 3Z" fill="#F7F3F3"/>
<path d="M377 13L381.5 10L386 13L381.5 16L377 13Z" fill="#F7F3F3"/>
<path d="M377 3L381.5 0L386 3L381.5 6L377 3Z" fill="#EEEEEE"/>
<path d="M364 13L368.5 10L373 13L368.5 16L364 13Z" fill="#EEEEEE"/>
<path d="M364 23L368.5 20L373 23L368.5 26L364 23Z" fill="#F7F3F3"/>
<path d="M377 33L381.5 30L386 33L381.5 36L377 33Z" fill="#F7F3F3"/>
<path d="M377 23L381.5 20L386 23L381.5 26L377 23Z" fill="#EEEEEE"/>
<path d="M364 33L368.5 30L373 33L368.5 36L364 33Z" fill="#EEEEEE"/>
<path d="M390 3L394.5 0L399 3L394.5 6L390 3Z" fill="#F7F3F3"/>
<path d="M403 13L407.5 10L412 13L407.5 16L403 13Z" fill="#F7F3F3"/>
<path d="M403 3L407.5 0L412 3L407.5 6L403 3Z" fill="#EEEEEE"/>
<path d="M390 13L394.5 10L399 13L394.5 16L390 13Z" fill="#EEEEEE"/>
<path d="M390 23L394.5 20L399 23L394.5 26L390 23Z" fill="#F7F3F3"/>
<path d="M403 33L407.5 30L412 33L407.5 36L403 33Z" fill="#F7F3F3"/>
<path d="M403 23L407.5 20L412 23L407.5 26L403 23Z" fill="#EEEEEE"/>
<path d="M390 33L394.5 30L399 33L394.5 36L390 33Z" fill="#EEEEEE"/>
<path d="M416 3L420.5 0L425 3L420.5 6L416 3Z" fill="#F7F3F3"/>
<path d="M429 13L433.5 10L438 13L433.5 16L429 13Z" fill="#F7F3F3"/>
<path d="M429 3L433.5 0L438 3L433.5 6L429 3Z" fill="#EEEEEE"/>
<path d="M416 13L420.5 10L425 13L420.5 16L416 13Z" fill="#EEEEEE"/>
<path d="M416 23L420.5 20L425 23L420.5 26L416 23Z" fill="#F7F3F3"/>
<path d="M429 33L433.5 30L438 33L433.5 36L429 33Z" fill="#F7F3F3"/>
<path d="M429 23L433.5 20L438 23L433.5 26L429 23Z" fill="#EEEEEE"/>
<path d="M416 33L420.5 30L425 33L420.5 36L416 33Z" fill="#EEEEEE"/>
<path d="M442 3L446.5 0L451 3L446.5 6L442 3Z" fill="#F7F3F3"/>
<path d="M455 13L459.5 10L464 13L459.5 16L455 13Z" fill="#F7F3F3"/>
<path d="M455 3L459.5 0L464 3L459.5 6L455 3Z" fill="#EEEEEE"/>
<path d="M442 13L446.5 10L451 13L446.5 16L442 13Z" fill="#EEEEEE"/>
<path d="M442 23L446.5 20L451 23L446.5 26L442 23Z" fill="#F7F3F3"/>
<path d="M455 33L459.5 30L464 33L459.5 36L455 33Z" fill="#F7F3F3"/>
<path d="M455 23L459.5 20L464 23L459.5 26L455 23Z" fill="#EEEEEE"/>
<path d="M442 33L446.5 30L451 33L446.5 36L442 33Z" fill="#EEEEEE"/>
<path d="M468 3L472.5 0L477 3L472.5 6L468 3Z" fill="#F7F3F3"/>
<path d="M481 13L485.5 10L490 13L485.5 16L481 13Z" fill="#F7F3F3"/>
<path d="M481 3L485.5 0L490 3L485.5 6L481 3Z" fill="#EEEEEE"/>
<path d="M468 13L472.5 10L477 13L472.5 16L468 13Z" fill="#EEEEEE"/>
<path d="M468 23L472.5 20L477 23L472.5 26L468 23Z" fill="#F7F3F3"/>
<path d="M481 33L485.5 30L490 33L485.5 36L481 33Z" fill="#F7F3F3"/>
<path d="M481 23L485.5 20L490 23L485.5 26L481 23Z" fill="#EEEEEE"/>
<path d="M468 33L472.5 30L477 33L472.5 36L468 33Z" fill="#EEEEEE"/>
<path d="M494 3L498.5 0L503 3L498.5 6L494 3Z" fill="#F7F3F3"/>
<path d="M507 13L511.5 10L516 13L511.5 16L507 13Z" fill="#F7F3F3"/>
<path d="M507 3L511.5 0L516 3L511.5 6L507 3Z" fill="#EEEEEE"/>
<path d="M494 13L498.5 10L503 13L498.5 16L494 13Z" fill="#EEEEEE"/>
<path d="M494 23L498.5 20L503 23L498.5 26L494 23Z" fill="#F7F3F3"/>
<path d="M507 33L511.5 30L516 33L511.5 36L507 33Z" fill="#F7F3F3"/>
<path d="M507 23L511.5 20L516 23L511.5 26L507 23Z" fill="#EEEEEE"/>
<path d="M494 33L498.5 30L503 33L498.5 36L494 33Z" fill="#EEEEEE"/>
<path d="M520 3L524.5 0L529 3L524.5 6L520 3Z" fill="#F7F3F3"/>
<path d="M533 13L537.5 10L542 13L537.5 16L533 13Z" fill="#F7F3F3"/>
<path d="M533 3L537.5 0L542 3L537.5 6L533 3Z" fill="#EEEEEE"/>
<path d="M520 13L524.5 10L529 13L524.5 16L520 13Z" fill="#EEEEEE"/>
<path d="M520 23L524.5 20L529 23L524.5 26L520 23Z" fill="#F7F3F3"/>
<path d="M533 33L537.5 30L542 33L537.5 36L533 33Z" fill="#F7F3F3"/>
<path d="M533 23L537.5 20L542 23L537.5 26L533 23Z" fill="#EEEEEE"/>
<path d="M520 33L524.5 30L529 33L524.5 36L520 33Z" fill="#EEEEEE"/>
<path d="M546 3L550.5 0L555 3L550.5 6L546 3Z" fill="#F7F3F3"/>
<path d="M559 13L563.5 10L568 13L563.5 16L559 13Z" fill="#F7F3F3"/>
<path d="M559 3L563.5 0L568 3L563.5 6L559 3Z" fill="#EEEEEE"/>
<path d="M546 13L550.5 10L555 13L550.5 16L546 13Z" fill="#EEEEEE"/>
<path d="M546 23L550.5 20L555 23L550.5 26L546 23Z" fill="#F7F3F3"/>
<path d="M559 33L563.5 30L568 33L563.5 36L559 33Z" fill="#F7F3F3"/>
<path d="M559 23L563.5 20L568 23L563.5 26L559 23Z" fill="#EEEEEE"/>
<path d="M546 33L550.5 30L555 33L550.5 36L546 33Z" fill="#EEEEEE"/>
<path d="M572 3L576.5 0L581 3L576.5 6L572 3Z" fill="#F7F3F3"/>
<path d="M585 13L589.5 10L594 13L589.5 16L585 13Z" fill="#F7F3F3"/>
<path d="M585 3L589.5 0L594 3L589.5 6L585 3Z" fill="#EEEEEE"/>
<path d="M572 13L576.5 10L581 13L576.5 16L572 13Z" fill="#EEEEEE"/>
<path d="M572 23L576.5 20L581 23L576.5 26L572 23Z" fill="#F7F3F3"/>
<path d="M585 33L589.5 30L594 33L589.5 36L585 33Z" fill="#F7F3F3"/>
<path d="M585 23L589.5 20L594 23L589.5 26L585 23Z" fill="#EEEEEE"/>
<path d="M572 33L576.5 30L581 33L576.5 36L572 33Z" fill="#EEEEEE"/>
<path d="M598 3L602.5 0L607 3L602.5 6L598 3Z" fill="#F7F3F3"/>
<path d="M611 13L615.5 10L620 13L615.5 16L611 13Z" fill="#F7F3F3"/>
<path d="M611 3L615.5 0L620 3L615.5 6L611 3Z" fill="#EEEEEE"/>
<path d="M598 13L602.5 10L607 13L602.5 16L598 13Z" fill="#EEEEEE"/>
<path d="M598 23L602.5 20L607 23L602.5 26L598 23Z" fill="#F7F3F3"/>
<path d="M611 33L615.5 30L620 33L615.5 36L611 33Z" fill="#F7F3F3"/>
<path d="M611 23L615.5 20L620 23L615.5 26L611 23Z" fill="#EEEEEE"/>
<path d="M598 33L602.5 30L607 33L602.5 36L598 33Z" fill="#EEEEEE"/>
<path d="M624 3L628.5 0L633 3L628.5 6L624 3Z" fill="#F7F3F3"/>
<path d="M637 13L641.5 10L646 13L641.5 16L637 13Z" fill="#F7F3F3"/>
<path d="M637 3L641.5 0L646 3L641.5 6L637 3Z" fill="#EEEEEE"/>
<path d="M624 13L628.5 10L633 13L628.5 16L624 13Z" fill="#EEEEEE"/>
<path d="M624 23L628.5 20L633 23L628.5 26L624 23Z" fill="#F7F3F3"/>
<path d="M637 33L641.5 30L646 33L641.5 36L637 33Z" fill="#F7F3F3"/>
<path d="M637 23L641.5 20L646 23L641.5 26L637 23Z" fill="#EEEEEE"/>
<path d="M624 33L628.5 30L633 33L628.5 36L624 33Z" fill="#EEEEEE"/>
<path d="M650 3L654.5 0L659 3L654.5 6L650 3Z" fill="#F7F3F3"/>
<path d="M663 13L667.5 10L672 13L667.5 16L663 13Z" fill="#F7F3F3"/>
<path d="M663 3L667.5 0L672 3L667.5 6L663 3Z" fill="#EEEEEE"/>
<path d="M650 13L654.5 10L659 13L654.5 16L650 13Z" fill="#EEEEEE"/>
<path d="M650 23L654.5 20L659 23L654.5 26L650 23Z" fill="#F7F3F3"/>
<path d="M663 33L667.5 30L672 33L667.5 36L663 33Z" fill="#F7F3F3"/>
<path d="M663 23L667.5 20L672 23L667.5 26L663 23Z" fill="#EEEEEE"/>
<path d="M650 33L654.5 30L659 33L654.5 36L650 33Z" fill="#EEEEEE"/>
<path d="M676 3L680.5 0L685 3L680.5 6L676 3Z" fill="#F7F3F3"/>
<path d="M689 13L693.5 10L698 13L693.5 16L689 13Z" fill="#F7F3F3"/>
<path d="M689 3L693.5 0L698 3L693.5 6L689 3Z" fill="#EEEEEE"/>
<path d="M676 13L680.5 10L685 13L680.5 16L676 13Z" fill="#EEEEEE"/>
<path d="M676 23L680.5 20L685 23L680.5 26L676 23Z" fill="#F7F3F3"/>
<path d="M689 33L693.5 30L698 33L693.5 36L689 33Z" fill="#F7F3F3"/>
<path d="M689 23L693.5 20L698 23L693.5 26L689 23Z" fill="#EEEEEE"/>
<path d="M676 33L680.5 30L685 33L680.5 36L676 33Z" fill="#EEEEEE"/>
<path d="M702 3L706.5 0L711 3L706.5 6L702 3Z" fill="#F7F3F3"/>
<path d="M715 13L719.5 10L724 13L719.5 16L715 13Z" fill="#F7F3F3"/>
<path d="M715 3L719.5 0L724 3L719.5 6L715 3Z" fill="#EEEEEE"/>
<path d="M702 13L706.5 10L711 13L706.5 16L702 13Z" fill="#EEEEEE"/>
<path d="M702 23L706.5 20L711 23L706.5 26L702 23Z" fill="#F7F3F3"/>
<path d="M715 33L719.5 30L724 33L719.5 36L715 33Z" fill="#F7F3F3"/>
<path d="M715 23L719.5 20L724 23L719.5 26L715 23Z" fill="#EEEEEE"/>
<path d="M702 33L706.5 30L711 33L706.5 36L702 33Z" fill="#EEEEEE"/>
<path d="M728 3L732.5 0L737 3L732.5 6L728 3Z" fill="#F7F3F3"/>
<path d="M741 13L745.5 10L750 13L745.5 16L741 13Z" fill="#F7F3F3"/>
<path d="M741 3L745.5 0L750 3L745.5 6L741 3Z" fill="#EEEEEE"/>
<path d="M728 13L732.5 10L737 13L732.5 16L728 13Z" fill="#EEEEEE"/>
<path d="M728 23L732.5 20L737 23L732.5 26L728 23Z" fill="#F7F3F3"/>
<path d="M741 33L745.5 30L750 33L745.5 36L741 33Z" fill="#F7F3F3"/>
<path d="M741 23L745.5 20L750 23L745.5 26L741 23Z" fill="#EEEEEE"/>
<path d="M728 33L732.5 30L737 33L732.5 36L728 33Z" fill="#EEEEEE"/>
<path d="M754 3L758.5 0L763 3L758.5 6L754 3Z" fill="#F7F3F3"/>
<path d="M767 13L771.5 10L776 13L771.5 16L767 13Z" fill="#F7F3F3"/>
<path d="M767 3L771.5 0L776 3L771.5 6L767 3Z" fill="#EEEEEE"/>
<path d="M754 13L758.5 10L763 13L758.5 16L754 13Z" fill="#EEEEEE"/>
<path d="M754 23L758.5 20L763 23L758.5 26L754 23Z" fill="#F7F3F3"/>
<path d="M767 33L771.5 30L776 33L771.5 36L767 33Z" fill="#F7F3F3"/>
<path d="M767 23L771.5 20L776 23L771.5 26L767 23Z" fill="#EEEEEE"/>
<path d="M754 33L758.5 30L763 33L758.5 36L754 33Z" fill="#EEEEEE"/>
<path d="M780 3L784.5 0L789 3L784.5 6L780 3Z" fill="#F7F3F3"/>
<path d="M793 13L797.5 10L802 13L797.5 16L793 13Z" fill="#F7F3F3"/>
<path d="M793 3L797.5 0L802 3L797.5 6L793 3Z" fill="#EEEEEE"/>
<path d="M780 13L784.5 10L789 13L784.5 16L780 13Z" fill="#EEEEEE"/>
<path d="M780 23L784.5 20L789 23L784.5 26L780 23Z" fill="#F7F3F3"/>
<path d="M793 33L797.5 30L802 33L797.5 36L793 33Z" fill="#F7F3F3"/>
<path d="M793 23L797.5 20L802 23L797.5 26L793 23Z" fill="#EEEEEE"/>
<path d="M780 33L784.5 30L789 33L784.5 36L780 33Z" fill="#EEEEEE"/>
<path d="M806 3L810.5 0L815 3L810.5 6L806 3Z" fill="#F7F3F3"/>
<path d="M819 13L823.5 10L828 13L823.5 16L819 13Z" fill="#F7F3F3"/>
<path d="M819 3L823.5 0L828 3L823.5 6L819 3Z" fill="#EEEEEE"/>
<path d="M806 13L810.5 10L815 13L810.5 16L806 13Z" fill="#EEEEEE"/>
<path d="M806 23L810.5 20L815 23L810.5 26L806 23Z" fill="#F7F3F3"/>
<path d="M819 33L823.5 30L828 33L823.5 36L819 33Z" fill="#F7F3F3"/>
<path d="M819 23L823.5 20L828 23L823.5 26L819 23Z" fill="#EEEEEE"/>
<path d="M806 33L810.5 30L815 33L810.5 36L806 33Z" fill="#EEEEEE"/>
<path d="M832 3L836.5 0L841 3L836.5 6L832 3Z" fill="#F7F3F3"/>
<path d="M845 13L849.5 10L854 13L849.5 16L845 13Z" fill="#F7F3F3"/>
<path d="M845 3L849.5 0L854 3L849.5 6L845 3Z" fill="#EEEEEE"/>
<path d="M832 13L836.5 10L841 13L836.5 16L832 13Z" fill="#EEEEEE"/>
<path d="M832 23L836.5 20L841 23L836.5 26L832 23Z" fill="#F7F3F3"/>
<path d="M845 33L849.5 30L854 33L849.5 36L845 33Z" fill="#F7F3F3"/>
<path d="M845 23L849.5 20L854 23L849.5 26L845 23Z" fill="#EEEEEE"/>
<path d="M832 33L836.5 30L841 33L836.5 36L832 33Z" fill="#EEEEEE"/>
<path d="M858 3L862.5 0L867 3L862.5 6L858 3Z" fill="#F7F3F3"/>
<path d="M871 13L875.5 10L880 13L875.5 16L871 13Z" fill="#F7F3F3"/>
<path d="M871 3L875.5 0L880 3L875.5 6L871 3Z" fill="#EEEEEE"/>
<path d="M858 13L862.5 10L867 13L862.5 16L858 13Z" fill="#EEEEEE"/>
<path d="M858 23L862.5 20L867 23L862.5 26L858 23Z" fill="#F7F3F3"/>
<path d="M871 33L875.5 30L880 33L875.5 36L871 33Z" fill="#F7F3F3"/>
<path d="M871 23L875.5 20L880 23L875.5 26L871 23Z" fill="#EEEEEE"/>
<path d="M858 33L862.5 30L867 33L862.5 36L858 33Z" fill="#EEEEEE"/>
<path d="M884 3L888.5 0L893 3L888.5 6L884 3Z" fill="#F7F3F3"/>
<path d="M897 13L901.5 10L906 13L901.5 16L897 13Z" fill="#F7F3F3"/>
<path d="M897 3L901.5 0L906 3L901.5 6L897 3Z" fill="#EEEEEE"/>
<path d="M884 13L888.5 10L893 13L888.5 16L884 13Z" fill="#EEEEEE"/>
<path d="M884 23L888.5 20L893 23L888.5 26L884 23Z" fill="#F7F3F3"/>
<path d="M897 33L901.5 30L906 33L901.5 36L897 33Z" fill="#F7F3F3"/>
<path d="M897 23L901.5 20L906 23L901.5 26L897 23Z" fill="#EEEEEE"/>
<path d="M884 33L888.5 30L893 33L888.5 36L884 33Z" fill="#EEEEEE"/>
<path d="M910 3L914.5 0L919 3L914.5 6L910 3Z" fill="#F7F3F3"/>
<path d="M923 13L927.5 10L932 13L927.5 16L923 13Z" fill="#F7F3F3"/>
<path d="M923 3L927.5 0L932 3L927.5 6L923 3Z" fill="#EEEEEE"/>
<path d="M910 13L914.5 10L919 13L914.5 16L910 13Z" fill="#EEEEEE"/>
<path d="M910 23L914.5 20L919 23L914.5 26L910 23Z" fill="#F7F3F3"/>
<path d="M923 33L927.5 30L932 33L927.5 36L923 33Z" fill="#F7F3F3"/>
<path d="M923 23L927.5 20L932 23L927.5 26L923 23Z" fill="#EEEEEE"/>
<path d="M910 33L914.5 30L919 33L914.5 36L910 33Z" fill="#EEEEEE"/>
<path d="M936 3L940.5 0L945 3L940.5 6L936 3Z" fill="#F7F3F3"/>
<path d="M949 13L953.5 10L958 13L953.5 16L949 13Z" fill="#F7F3F3"/>
<path d="M949 3L953.5 0L958 3L953.5 6L949 3Z" fill="#EEEEEE"/>
<path d="M936 13L940.5 10L945 13L940.5 16L936 13Z" fill="#EEEEEE"/>
<path d="M936 23L940.5 20L945 23L940.5 26L936 23Z" fill="#F7F3F3"/>
<path d="M949 33L953.5 30L958 33L953.5 36L949 33Z" fill="#F7F3F3"/>
<path d="M949 23L953.5 20L958 23L953.5 26L949 23Z" fill="#EEEEEE"/>
<path d="M936 33L940.5 30L945 33L940.5 36L936 33Z" fill="#EEEEEE"/>
<path d="M962 3L966.5 0L971 3L966.5 6L962 3Z" fill="#F7F3F3"/>
<path d="M975 13L979.5 10L984 13L979.5 16L975 13Z" fill="#F7F3F3"/>
<path d="M975 3L979.5 0L984 3L979.5 6L975 3Z" fill="#EEEEEE"/>
<path d="M962 13L966.5 10L971 13L966.5 16L962 13Z" fill="#EEEEEE"/>
<path d="M962 23L966.5 20L971 23L966.5 26L962 23Z" fill="#F7F3F3"/>
<path d="M975 33L979.5 30L984 33L979.5 36L975 33Z" fill="#F7F3F3"/>
<path d="M975 23L979.5 20L984 23L979.5 26L975 23Z" fill="#EEEEEE"/>
<path d="M962 33L966.5 30L971 33L966.5 36L962 33Z" fill="#EEEEEE"/>
<path d="M988 3L992.5 0L997 3L992.5 6L988 3Z" fill="#F7F3F3"/>
<path d="M1001 13L1005.5 10L1010 13L1005.5 16L1001 13Z" fill="#F7F3F3"/>
<path d="M1001 3L1005.5 0L1010 3L1005.5 6L1001 3Z" fill="#EEEEEE"/>
<path d="M988 13L992.5 10L997 13L992.5 16L988 13Z" fill="#EEEEEE"/>
<path d="M988 23L992.5 20L997 23L992.5 26L988 23Z" fill="#F7F3F3"/>
<path d="M1001 33L1005.5 30L1010 33L1005.5 36L1001 33Z" fill="#F7F3F3"/>
<path d="M1001 23L1005.5 20L1010 23L1005.5 26L1001 23Z" fill="#EEEEEE"/>
<path d="M988 33L992.5 30L997 33L992.5 36L988 33Z" fill="#EEEEEE"/>
<path d="M1014 3L1018.5 0L1023 3L1018.5 6L1014 3Z" fill="#F7F3F3"/>
<path d="M1027 13L1031.5 10L1036 13L1031.5 16L1027 13Z" fill="#F7F3F3"/>
<path d="M1027 3L1031.5 0L1036 3L1031.5 6L1027 3Z" fill="#EEEEEE"/>
<path d="M1014 13L1018.5 10L1023 13L1018.5 16L1014 13Z" fill="#EEEEEE"/>
<path d="M1014 23L1018.5 20L1023 23L1018.5 26L1014 23Z" fill="#F7F3F3"/>
<path d="M1027 33L1031.5 30L1036 33L1031.5 36L1027 33Z" fill="#F7F3F3"/>
<path d="M1027 23L1031.5 20L1036 23L1031.5 26L1027 23Z" fill="#EEEEEE"/>
<path d="M1014 33L1018.5 30L1023 33L1018.5 36L1014 33Z" fill="#EEEEEE"/>
<path d="M1040 3L1044.5 0L1049 3L1044.5 6L1040 3Z" fill="#F7F3F3"/>
<path d="M1053 13L1057.5 10L1062 13L1057.5 16L1053 13Z" fill="#F7F3F3"/>
<path d="M1053 3L1057.5 0L1062 3L1057.5 6L1053 3Z" fill="#EEEEEE"/>
<path d="M1040 13L1044.5 10L1049 13L1044.5 16L1040 13Z" fill="#EEEEEE"/>
<path d="M1040 23L1044.5 20L1049 23L1044.5 26L1040 23Z" fill="#F7F3F3"/>
<path d="M1053 33L1057.5 30L1062 33L1057.5 36L1053 33Z" fill="#F7F3F3"/>
<path d="M1053 23L1057.5 20L1062 23L1057.5 26L1053 23Z" fill="#EEEEEE"/>
<path d="M1040 33L1044.5 30L1049 33L1044.5 36L1040 33Z" fill="#EEEEEE"/>
<path d="M1066 3L1070.5 0L1075 3L1070.5 6L1066 3Z" fill="#F7F3F3"/>
<path d="M1079 13L1083.5 10L1088 13L1083.5 16L1079 13Z" fill="#F7F3F3"/>
<path d="M1079 3L1083.5 0L1088 3L1083.5 6L1079 3Z" fill="#EEEEEE"/>
<path d="M1066 13L1070.5 10L1075 13L1070.5 16L1066 13Z" fill="#EEEEEE"/>
<path d="M1066 23L1070.5 20L1075 23L1070.5 26L1066 23Z" fill="#F7F3F3"/>
<path d="M1079 33L1083.5 30L1088 33L1083.5 36L1079 33Z" fill="#F7F3F3"/>
<path d="M1079 23L1083.5 20L1088 23L1083.5 26L1079 23Z" fill="#EEEEEE"/>
<path d="M1066 33L1070.5 30L1075 33L1070.5 36L1066 33Z" fill="#EEEEEE"/>
<path d="M1092 3L1096.5 0L1101 3L1096.5 6L1092 3Z" fill="#F7F3F3"/>
<path d="M1105 13L1109.5 10L1114 13L1109.5 16L1105 13Z" fill="#F7F3F3"/>
<path d="M1105 3L1109.5 0L1114 3L1109.5 6L1105 3Z" fill="#EEEEEE"/>
<path d="M1092 13L1096.5 10L1101 13L1096.5 16L1092 13Z" fill="#EEEEEE"/>
<path d="M1092 23L1096.5 20L1101 23L1096.5 26L1092 23Z" fill="#F7F3F3"/>
<path d="M1105 33L1109.5 30L1114 33L1109.5 36L1105 33Z" fill="#F7F3F3"/>
<path d="M1105 23L1109.5 20L1114 23L1109.5 26L1105 23Z" fill="#EEEEEE"/>
<path d="M1092 33L1096.5 30L1101 33L1096.5 36L1092 33Z" fill="#EEEEEE"/>
<path d="M1118 3L1122.5 0L1127 3L1122.5 6L1118 3Z" fill="#F7F3F3"/>
<path d="M1131 13L1135.5 10L1140 13L1135.5 16L1131 13Z" fill="#F7F3F3"/>
<path d="M1131 3L1135.5 0L1140 3L1135.5 6L1131 3Z" fill="#EEEEEE"/>
<path d="M1118 13L1122.5 10L1127 13L1122.5 16L1118 13Z" fill="#EEEEEE"/>
<path d="M1118 23L1122.5 20L1127 23L1122.5 26L1118 23Z" fill="#F7F3F3"/>
<path d="M1131 33L1135.5 30L1140 33L1135.5 36L1131 33Z" fill="#F7F3F3"/>
<path d="M1131 23L1135.5 20L1140 23L1135.5 26L1131 23Z" fill="#EEEEEE"/>
<path d="M1118 33L1122.5 30L1127 33L1122.5 36L1118 33Z" fill="#EEEEEE"/>
<path d="M1144 3L1148.5 0L1153 3L1148.5 6L1144 3Z" fill="#F7F3F3"/>
<path d="M1157 13L1161.5 10L1166 13L1161.5 16L1157 13Z" fill="#F7F3F3"/>
<path d="M1157 3L1161.5 0L1166 3L1161.5 6L1157 3Z" fill="#EEEEEE"/>
<path d="M1144 13L1148.5 10L1153 13L1148.5 16L1144 13Z" fill="#EEEEEE"/>
<path d="M1144 23L1148.5 20L1153 23L1148.5 26L1144 23Z" fill="#F7F3F3"/>
<path d="M1157 33L1161.5 30L1166 33L1161.5 36L1157 33Z" fill="#F7F3F3"/>
<path d="M1157 23L1161.5 20L1166 23L1161.5 26L1157 23Z" fill="#EEEEEE"/>
<path d="M1144 33L1148.5 30L1153 33L1148.5 36L1144 33Z" fill="#EEEEEE"/>
<path d="M1170 3L1174.5 0L1179 3L1174.5 6L1170 3Z" fill="#F7F3F3"/>
<path d="M1183 13L1187.5 10L1192 13L1187.5 16L1183 13Z" fill="#F7F3F3"/>
<path d="M1183 3L1187.5 0L1192 3L1187.5 6L1183 3Z" fill="#EEEEEE"/>
<path d="M1170 13L1174.5 10L1179 13L1174.5 16L1170 13Z" fill="#EEEEEE"/>
<path d="M1170 23L1174.5 20L1179 23L1174.5 26L1170 23Z" fill="#F7F3F3"/>
<path d="M1183 33L1187.5 30L1192 33L1187.5 36L1183 33Z" fill="#F7F3F3"/>
<path d="M1183 23L1187.5 20L1192 23L1187.5 26L1183 23Z" fill="#EEEEEE"/>
<path d="M1170 33L1174.5 30L1179 33L1174.5 36L1170 33Z" fill="#EEEEEE"/>
<path d="M1196 3L1200.5 0L1205 3L1200.5 6L1196 3Z" fill="#F7F3F3"/>
<path d="M1209 13L1213.5 10L1218 13L1213.5 16L1209 13Z" fill="#F7F3F3"/>
<path d="M1209 3L1213.5 0L1218 3L1213.5 6L1209 3Z" fill="#EEEEEE"/>
<path d="M1196 13L1200.5 10L1205 13L1200.5 16L1196 13Z" fill="#EEEEEE"/>
<path d="M1196 23L1200.5 20L1205 23L1200.5 26L1196 23Z" fill="#F7F3F3"/>
<path d="M1209 33L1213.5 30L1218 33L1213.5 36L1209 33Z" fill="#F7F3F3"/>
<path d="M1209 23L1213.5 20L1218 23L1213.5 26L1209 23Z" fill="#EEEEEE"/>
<path d="M1196 33L1200.5 30L1205 33L1200.5 36L1196 33Z" fill="#EEEEEE"/>
<path d="M1222 3L1226.5 0L1231 3L1226.5 6L1222 3Z" fill="#F7F3F3"/>
<path d="M1235 13L1239.5 10L1244 13L1239.5 16L1235 13Z" fill="#F7F3F3"/>
<path d="M1235 3L1239.5 0L1244 3L1239.5 6L1235 3Z" fill="#EEEEEE"/>
<path d="M1222 13L1226.5 10L1231 13L1226.5 16L1222 13Z" fill="#EEEEEE"/>
<path d="M1222 23L1226.5 20L1231 23L1226.5 26L1222 23Z" fill="#F7F3F3"/>
<path d="M1235 33L1239.5 30L1244 33L1239.5 36L1235 33Z" fill="#F7F3F3"/>
<path d="M1235 23L1239.5 20L1244 23L1239.5 26L1235 23Z" fill="#EEEEEE"/>
<path d="M1222 33L1226.5 30L1231 33L1226.5 36L1222 33Z" fill="#EEEEEE"/>
<path d="M1248 3L1252.5 0L1257 3L1252.5 6L1248 3Z" fill="#F7F3F3"/>
<path d="M1261 13L1265.5 10L1270 13L1265.5 16L1261 13Z" fill="#F7F3F3"/>
<path d="M1261 3L1265.5 0L1270 3L1265.5 6L1261 3Z" fill="#EEEEEE"/>
<path d="M1248 13L1252.5 10L1257 13L1252.5 16L1248 13Z" fill="#EEEEEE"/>
<path d="M1248 23L1252.5 20L1257 23L1252.5 26L1248 23Z" fill="#F7F3F3"/>
<path d="M1261 33L1265.5 30L1270 33L1265.5 36L1261 33Z" fill="#F7F3F3"/>
<path d="M1261 23L1265.5 20L1270 23L1265.5 26L1261 23Z" fill="#EEEEEE"/>
<path d="M1248 33L1252.5 30L1257 33L1252.5 36L1248 33Z" fill="#EEEEEE"/>
<path d="M1274 3L1278.5 0L1283 3L1278.5 6L1274 3Z" fill="#F7F3F3"/>
<path d="M1287 13L1291.5 10L1296 13L1291.5 16L1287 13Z" fill="#F7F3F3"/>
<path d="M1287 3L1291.5 0L1296 3L1291.5 6L1287 3Z" fill="#EEEEEE"/>
<path d="M1274 13L1278.5 10L1283 13L1278.5 16L1274 13Z" fill="#EEEEEE"/>
<path d="M1274 23L1278.5 20L1283 23L1278.5 26L1274 23Z" fill="#F7F3F3"/>
<path d="M1287 33L1291.5 30L1296 33L1291.5 36L1287 33Z" fill="#F7F3F3"/>
<path d="M1287 23L1291.5 20L1296 23L1291.5 26L1287 23Z" fill="#EEEEEE"/>
<path d="M1274 33L1278.5 30L1283 33L1278.5 36L1274 33Z" fill="#EEEEEE"/>
<path d="M1300 3L1304.5 0L1309 3L1304.5 6L1300 3Z" fill="#F7F3F3"/>
<path d="M1313 13L1317.5 10L1322 13L1317.5 16L1313 13Z" fill="#F7F3F3"/>
<path d="M1313 3L1317.5 0L1322 3L1317.5 6L1313 3Z" fill="#EEEEEE"/>
<path d="M1300 13L1304.5 10L1309 13L1304.5 16L1300 13Z" fill="#EEEEEE"/>
<path d="M1300 23L1304.5 20L1309 23L1304.5 26L1300 23Z" fill="#F7F3F3"/>
<path d="M1313 33L1317.5 30L1322 33L1317.5 36L1313 33Z" fill="#F7F3F3"/>
<path d="M1313 23L1317.5 20L1322 23L1317.5 26L1313 23Z" fill="#EEEEEE"/>
<path d="M1300 33L1304.5 30L1309 33L1304.5 36L1300 33Z" fill="#EEEEEE"/>
<path d="M1326 3L1330.5 0L1335 3L1330.5 6L1326 3Z" fill="#F7F3F3"/>
<path d="M1339 13L1343.5 10L1348 13L1343.5 16L1339 13Z" fill="#F7F3F3"/>
<path d="M1339 3L1343.5 0L1348 3L1343.5 6L1339 3Z" fill="#EEEEEE"/>
<path d="M1326 13L1330.5 10L1335 13L1330.5 16L1326 13Z" fill="#EEEEEE"/>
<path d="M1326 23L1330.5 20L1335 23L1330.5 26L1326 23Z" fill="#F7F3F3"/>
<path d="M1339 33L1343.5 30L1348 33L1343.5 36L1339 33Z" fill="#F7F3F3"/>
<path d="M1339 23L1343.5 20L1348 23L1343.5 26L1339 23Z" fill="#EEEEEE"/>
<path d="M1326 33L1330.5 30L1335 33L1330.5 36L1326 33Z" fill="#EEEEEE"/>
<path d="M1352 3L1356.5 0L1361 3L1356.5 6L1352 3Z" fill="#F7F3F3"/>
<path d="M1365 13L1369.5 10L1374 13L1369.5 16L1365 13Z" fill="#F7F3F3"/>
<path d="M1365 3L1369.5 0L1374 3L1369.5 6L1365 3Z" fill="#EEEEEE"/>
<path d="M1352 13L1356.5 10L1361 13L1356.5 16L1352 13Z" fill="#EEEEEE"/>
<path d="M1352 23L1356.5 20L1361 23L1356.5 26L1352 23Z" fill="#F7F3F3"/>
<path d="M1365 33L1369.5 30L1374 33L1369.5 36L1365 33Z" fill="#F7F3F3"/>
<path d="M1365 23L1369.5 20L1374 23L1369.5 26L1365 23Z" fill="#EEEEEE"/>
<path d="M1352 33L1356.5 30L1361 33L1356.5 36L1352 33Z" fill="#EEEEEE"/>
<path d="M1378 3L1382.5 0L1387 3L1382.5 6L1378 3Z" fill="#F7F3F3"/>
<path d="M1391 13L1395.5 10L1400 13L1395.5 16L1391 13Z" fill="#F7F3F3"/>
<path d="M1391 3L1395.5 0L1400 3L1395.5 6L1391 3Z" fill="#EEEEEE"/>
<path d="M1378 13L1382.5 10L1387 13L1382.5 16L1378 13Z" fill="#EEEEEE"/>
<path d="M1378 23L1382.5 20L1387 23L1382.5 26L1378 23Z" fill="#F7F3F3"/>
<path d="M1391 33L1395.5 30L1400 33L1395.5 36L1391 33Z" fill="#F7F3F3"/>
<path d="M1391 23L1395.5 20L1400 23L1395.5 26L1391 23Z" fill="#EEEEEE"/>
<path d="M1378 33L1382.5 30L1387 33L1382.5 36L1378 33Z" fill="#EEEEEE"/>
<path d="M1404 3L1408.5 0L1413 3L1408.5 6L1404 3Z" fill="#F7F3F3"/>
<path d="M1417 13L1421.5 10L1426 13L1421.5 16L1417 13Z" fill="#F7F3F3"/>
<path d="M1417 3L1421.5 0L1426 3L1421.5 6L1417 3Z" fill="#EEEEEE"/>
<path d="M1404 13L1408.5 10L1413 13L1408.5 16L1404 13Z" fill="#EEEEEE"/>
<path d="M1404 23L1408.5 20L1413 23L1408.5 26L1404 23Z" fill="#F7F3F3"/>
<path d="M1417 33L1421.5 30L1426 33L1421.5 36L1417 33Z" fill="#F7F3F3"/>
<path d="M1417 23L1421.5 20L1426 23L1421.5 26L1417 23Z" fill="#EEEEEE"/>
<path d="M1404 33L1408.5 30L1413 33L1408.5 36L1404 33Z" fill="#EEEEEE"/>
<path d="M1430 3L1434.5 0L1439 3L1434.5 6L1430 3Z" fill="#F7F3F3"/>
<path d="M1430 13L1434.5 10L1439 13L1434.5 16L1430 13Z" fill="#EEEEEE"/>
<path d="M1430 23L1434.5 20L1439 23L1434.5 26L1430 23Z" fill="#F7F3F3"/>
<path d="M1430 33L1434.5 30L1439 33L1434.5 36L1430 33Z" fill="#EEEEEE"/>
</svg>
